<?xml version="1.0" encoding="UTF-8" standalone="no"?>
<!DOCTYPE svg PUBLIC "-//W3C//DTD SVG 1.1//EN" "http://www.w3.org/Graphics/SVG/1.1/DTD/svg11.dtd">
<svg xmlns="http://www.w3.org/2000/svg" xmlns:xlink="http://www.w3.org/1999/xlink" version="1.1" width="612pt" height="792pt" viewBox="0 0 612 792">
<g enable-background="new">
<g>
<text xml:space="preserve" transform="matrix(1 0 -0 1 0 792)" font-size="23.9103" font-family="NimbusRomNo9L"><tspan y="-720.768" x="151.517 166.12619 178.08135 184.72841 201.99164 208.6387 219.25489 231.21004 237.8571 249.81226 261.7674 282.09114 292.7073 299.35438 311.3095 321.9257 339.5954 356.85865 363.5057 375.46086 387.416 395.3781 402.02519 408.67225 420.62739 439.22959 451.18473">EntwicklungeinesAlgorithmus</tspan><tspan y="-692.873" x="174.278 184.89418 196.84934 213.18007 227.78926 235.75139 247.46744 258.08363 270.03877 281.9939 293.94905 305.90419 326.2279 337.70484 349.65998 369.9837 385.9319 392.57896 403.19514 415.15028 425.76646">zurErkennungvonBienen</tspan></text>
<text xml:space="preserve" transform="matrix(1 0 -0 1 0 792)" font-size="10.9589" font-family="NimbusRomNo9L"><tspan y="-661.49" x="269.38099 276.07688 280.94264 283.9892 288.85496 294.3344 297.38099 300.42756 305.907 315.22209 323.1344 328.61387 331.66044 337.1399">ValentinoGolob</tspan></text>
<text xml:space="preserve" transform="matrix(1 0 -0 1 0 792)" font-size="9.9626" font-family="NimbusRomNo9L" font-style="italic"><tspan y="-649.014" x="260.68498 267.87797 272.85926 277.1332 282.1145 285.98997 290.26393 295.2452 300.2265 302.9961 310.9064">HochschuleM</tspan><tspan y="-648.949" x="320.01899">&#x00a8;</tspan><tspan y="-649.014" x="319.205 324.18629 329.16758 333.44154 338.42283 342.84623">unchen</tspan></text>
<text xml:space="preserve" transform="matrix(1 0 -0 1 0 792)" font-size="9.9626" font-family="NimbusRomNo9L"><tspan y="-636.685" x="243.853 248.83429 253.81558 258.79689 263.77818 268.75947 274.73704">80335,M</tspan><tspan y="-636.735" x="284.426">&#x00a8;</tspan><tspan y="-636.685" x="283.594 288.5753 293.55659 297.97999 302.96128 307.38468 312.36598 318.34355 325.53654 329.95994 334.94123 337.71083 341.58628 346.00968 350.99098 353.76057 358.18397 363.16526">unchen,Deutschland</tspan><tspan y="-624.356" x="255.599 260.33125 264.75465 267.52424 271.94764 276.92893 279.69853 282.4681 287.4494 292.4307 294.92137 299.90266 304.88395 307.65354 312.63484 317.61613 326.7917 331.77299 339.5239 342.01457 346.43797 351.41926">valentino.golob@hm.edu</tspan></text>
<text xml:space="preserve" transform="matrix(1 0 -0 1 0 792)" font-size="8.9664" font-family="NimbusRomNo9L" font-weight="bold" font-style="italic"><tspan y="-589.628" x="58.925996 64.404468 69.389789 72.877719 77.360919 84.33678 91.31264 95.29372 100.27904 103.26485 107.74805 111.23598 114.72391 119.70923 124.69455">Zusammenfassung</tspan></text>
<text xml:space="preserve" transform="matrix(1 0 -0 1 0 792)" font-size="8.9664" font-family="NimbusRomNo9L" font-weight="bold"><tspan y="-589.628" x="129.177 138.1434 144.61714 147.1098 151.09088 154.57881 158.55989 165.82268 171.80327 175.78435 179.76543 182.25809 186.23917 191.22449 197.492 202.47733 206.4584 209.94634 213.92742 218.90377 222.72345 226.70453 229.19719 234.18251 240.45003 245.43535 249.41643 257.68345 266.14775 270.63093 275.61625 279.59733 282.08998 284.5826 289.0658 294.05113 297.03694">&#x2014;DieserBerichtbeschreibtdenModellauf-</tspan><tspan y="-579.665" x="48.964006 53.949327 58.432527 67.46169 71.44277 73.93543 78.92075 82.90183 90.43361 97.90262 102.38582 107.37114 109.8638 114.84912 118.8302 121.32286 125.30394 129.28502 132.27083 136.2519 145.28108 151.441 158.41686 164.39745 175.40819 181.88193 184.37459 188.85779 193.34099 197.32207 199.81473 202.80054 207.78586 215.25487 220.24019 227.77198 231.75305 236.73838 244.7633 251.23705 255.21813 258.20396 262.18504 267.17036 270.15617 272.6488 277.13203 286.1612 290.55476 295.03797">baueinesmodi&#xfb01;ziertenYOLOAlgorithmuszurDetektionvon</tspan><tspan y="-569.70199" x="48.964006 54.944597 57.437257 61.41834 66.403659 70.384738 75.370059 83.68191 87.16984 92.15516 95.64309 100.62841 104.60949 108.09742 112.58062 117.56594 122.55126 126.53234 130.35204 140.40337 146.8771 149.36977 153.35085 164.41539 168.39647">Bienen.Insbesonderewirder</tspan><tspan y="-569.774" x="173.123">&#x00a8;</tspan><tspan y="-569.70199" x="172.37401 176.85721 180.83829 183.8241 187.80518 191.78626 194.77207 203.08393 209.55767 212.05033 222.11063 225.59856 228.09122 232.0723 243.12787 248.11319 250.60585 260.6572 269.04078 273.524 278.5093 287.0722 292.05754 296.0386">ortert,wiesichdieWahlder</tspan><tspan y="-559.74" x="48.964006 55.939867 60.423067 65.40839 69.389469 73.28088 78.266208 82.749408 86.730487 91.213687 98.68269 102.66377 105.64958 109.63066 116.974147 121.457347 126.442668 132.79088 137.7762 140.26886 147.61234 153.59293 157.574 162.46967 166.45075 171.43607 176.42139 181.40671 186.39203 190.87523 194.36316 196.85582 200.8369 203.32956 206.81749 209.8033 214.78862 219.77394 227.61954 232.10274 237.08806 240.57599 247.04973 249.54239 253.52347 258.5088 261.4946">HyperparameteraufdieErkennungsleistungauswirkt.</tspan></text>
<text xml:space="preserve" transform="matrix(1 0 -0 1 0 792)" font-size="8.9664" font-family="NimbusRomNo9L" font-weight="bold" font-style="italic"><tspan y="-549.74099" x="58.926004 62.413934 67.399257 71.882457 75.86353 83.449108 88.10267 92.08375 95.57168 102.54754">IndexTerms</tspan></text>
<text xml:space="preserve" transform="matrix(1 0 -0 1 0 792)" font-size="8.9664" font-family="NimbusRomNo9L" font-weight="bold"><tspan y="-549.74099" x="106.039 115.0054 122.47441 126.95761 131.94293 137.28691 143.44683 150.42269 156.40328 163.37914 168.73207 175.20581 179.68901 184.31568 188.70922 193.19242 195.68508 200.6704 203.6562 206.14887 210.63207 215.61739 220.10059 225.69562 232.16936 236.15044 241.13576 244.95545 249.43865 254.42397 258.90718 264.51115 270.9849 274.96598 277.95179 284.33589 288.8191 292.80018 297.7855">&#x2014;mod.YOLO,ConvolutionalNeuronalNetwork,</tspan><tspan y="-539.77798" x="48.964 54.94459 58.925676 66.26916 74.73344 79.21664 84.20196 86.69462 89.68043 94.16363 98.14471 100.63737 105.62269">BeeMonitoring</tspan></text>
<text xml:space="preserve" transform="matrix(1 0 -0 1 0 792)" font-size="9.9626" font-family="NimbusRomNo9L"><tspan y="-518.022" x="140.038 143.85367 151.82375">I.E</tspan></text>
<text xml:space="preserve" transform="matrix(1 0 -0 1 0 792)" font-size="7.9701" font-family="NimbusRomNo9L"><tspan y="-518.022" x="158.409 161.55718 167.80573">INF</tspan></text>
<text xml:space="preserve" transform="matrix(1 0 -0 1 0 792)" font-size="9.9626" font-family="NimbusRomNo9L"><tspan y="-518.86398" x="173.94">&#x00a8;</tspan></text>
<text xml:space="preserve" transform="matrix(1 0 -0 1 0 792)" font-size="7.9701" font-family="NimbusRomNo9L"><tspan y="-518.022" x="172.725 178.97356 185.21414 190.70554 196.95409 203.20264">UHRUNG</tspan></text>
<text xml:space="preserve" transform="matrix(1 0 -0 1 0 792)" font-size="9.9626" font-family="NimbusRomNo9L"><tspan y="-502.71299" x="58.926004 66.119 70.39296 75.37426 79.79765 84.77895">Gegenw</tspan><tspan y="-502.762" x="92.525">&#x00a8;</tspan><tspan y="-502.71299" x="91.972 96.39539 99.71294 102.48254 105.25214 115.025447 117.795047 121.670497 129.24207 133.66547 136.43508 139.20468 143.62808 146.39769 156.17099 160.59439 163.364 168.34529 177.57067 181.44612 186.42742 191.4087 194.17832 198.60172 203.58301 206.35262 208.87316 213.705 222.92041 230.1134 235.0947 238.97016 242.84561 247.26902 252.2503 261.47569 265.89909 275.6724 280.0958 282.8654 287.84669 292.27009">artigistalleineinesubjektiveAussagezueinem</tspan><tspan y="-490.758" x="48.964 55.609056 58.37866 62.80205 67.78335 72.20674 77.18804 81.06349 83.83309 88.256488 93.237789 102.204128 107.185428 112.166728 121.133068 126.114368 130.53777 134.41323 138.28868 142.71208 151.68839 158.53269 163.51398 166.83153 170.14908 174.57248 177.34209 181.76549 184.5351 187.3047 192.286 201.25234 205.67574 214.64208 219.62337 222.1439 226.97576 231.39916 234.7167 238.59217 243.01557 251.9819 259.1749 266.9258 274.1188 278.5422 281.3118 284.0814 287.2993 291.7227 296.70399">BienenstandunddessenKorrelationzudiversenUmweltfak-</tspan><tspan y="-478.802" x="48.964 51.733606 56.714906 60.03245 64.45585 72.3263">torenm</tspan><tspan y="-478.852" x="80.908008">&#x00a8;</tspan><tspan y="-478.802" x="80.076007 85.057308 90.038608 92.808208 95.577808 100.0012 104.9825 110.3623 113.67984 118.66114 124.867839 132.06084 142.7009 147.1243 152.10559">oglich.[7]Umzuk</tspan><tspan y="-478.852" x="157.91501">&#x00a8;</tspan><tspan y="-478.802" x="157.08301 162.0643 167.0456 170.36315 173.13275 175.90236 183.77281 188.19622 193.1775 197.6009 205.47136 210.45265 215.43395 218.20355 222.62696 227.60825 230.37786 232.89839 237.73024 245.0428 251.8871 256.8684 260.18595 263.50349 267.92689 270.69648 275.11988 277.88948 280.65907 285.64036 290.62165 295.04505">unftigauchobjektiveKorrelationen</tspan><tspan y="-466.84703" x="48.964006 53.387399 58.3687 61.1383 65.5617 68.3313 71.1009 75.52429 82.79699 87.22038 94.503047">ableitenzuk</tspan><tspan y="-466.897" x="100.31601">&#x00a8;</tspan><tspan y="-466.84703" x="99.48501 104.46631 109.44761 114.42891 118.8523 123.8336 128.61565 135.80864 140.23204 143.54959 148.53089 152.95429 160.23694 165.21823 167.98784 174.7126 179.136 181.90561 186.8869 191.3103 195.7337 198.50331 203.4846 207.908 215.1807 221.82575 224.59535 229.01876 234.00005 238.42345 245.7061 253.457 256.2266 258.9962 263.97749 266.74708 269.51667 272.8342 279.549 283.9724 286.742 291.7233 296.1467">onnen,werdendieeinzelnenBienenmithilfeeines</tspan><tspan y="-454.89204" x="48.96401 55.609064 60.590364 65.17316 69.95521 74.93651 77.70611 82.68741 85.45701 88.22661 93.20791 98.18921 102.6126 108.86911 116.06211 120.485507 125.466808 128.78435 133.76564 138.74694 143.17034 149.42685 156.61985 161.04325 163.81285 170.90622 175.88751 179.20507 184.18636 191.54872 196.53002 200.95342 203.72303 208.14643 213.12772 215.89733 218.66693 223.09033 226.40789 229.17749">ConvolutionalNeuronalNetworksdetektiert.</tspan><tspan y="-435.90504" x="146.48401 150.29969 154.11536 162.08544">II.K</tspan></text>
<text xml:space="preserve" transform="matrix(1 0 -0 1 0 792)" font-size="7.9701" font-family="NimbusRomNo9L"><tspan y="-435.90504" x="169.507 175.75556 181.99614 187.36002 192.71593 197.64145">ONZEPT</tspan></text>
<text xml:space="preserve" transform="matrix(1 0 -0 1 0 792)" font-size="9.9626" font-family="NimbusRomNo9L"><tspan y="-420.59605" x="58.926004 62.24355 73.37177 80.01683 84.44022 89.421527 97.172428 101.59582 109.95444 114.93574 119.35913 126.05399 134.91075 139.89205 144.87334 149.85463 152.62424 157.04764 160.36519 165.34648 169.76988 172.53949 178.68642 185.87941 188.64902 191.96657 200.31522 204.73862 207.50823 212.48952 220.29024 224.71364 229.69493 234.67623 239.09963 244.08092 248.50432 252.37978 256.25523 259.0248 266.82554 272.9127 277.3361 280.65364 283.42323 287.84663 292.8279 295.5975">ImRahmenderModularbeitwirdeineangepassteVariante</tspan><tspan y="-408.64106" x="48.964006 53.945306 58.3687 66.65758 73.5517 80.7447 86.83185 98.42832 105.62132 110.044719 112.814319 119.90769 124.88899 128.20655 133.18784 141.46677 146.24881 151.2301 160.62483 167.26988 171.69329 176.67458 184.42548 189.40677 198.8015 202.11905 207.10034 214.82137 219.24477 224.22606 229.20735 233.38169 240.57468 244.99808 249.97937 254.96067 259.38407 262.15367 269.05775 275.7028 280.1262 287.29927 292.28056 296.70396">desYOLONetworksvonRedmon[2]angewendet.Beider</tspan><tspan y="-396.68507" x="48.964006 55.60906 60.03245 64.45585 67.77339 72.75469 77.178089 79.947689 82.717288 87.698589 92.679889 102.40338 109.59638 114.57768 117.895229 122.876529 132.05208 137.03337 141.45677 150.07444 157.26743 160.03704 162.80664 169.99964 174.98093 184.70442 191.34947 195.77288 200.75417 205.73546 209.61092 212.38053 215.15013 220.13143 223.44898 233.17247 237.95452 242.9358 252.66927 258.20848 262.63188 265.9494 269.82487 273.70033 278.6816 288.4051 291.72264 296.70393">BearbeitungwurdedasGitHubRepositoryvonPersson[8]</tspan><tspan y="-384.73008" x="48.964006 53.945306 58.3687 61.686246 66.10964 71.09094 76.07224 80.495639 84.91903 89.90033 94.88163 99.30502 109.88531 114.86661 119.84791 130.42819 134.8516 145.44184 149.86524 153.18279 156.50034 161.48163 164.79918 169.78047 174.20388 177.52143 180.29103 183.06064 187.48404 192.46533 196.88874 207.46901 213.00821 215.77782 220.20122 222.97083 225.74044 230.16384 240.74411 245.16751 250.1488 255.1301 259.5535 264.5348 268.9582 272.83366 276.7091 285.07768 290.05897 295.04026">herangezogenundanerforderlichenStellenangepasstund</tspan><tspan y="-372.7751" x="48.964006 53.387399 56.704946 63.89794 68.321338 71.090938 73.860538 78.28393 81.60147 84.37107">erweitert.</tspan></text>
<text xml:space="preserve" transform="matrix(1 0 -0 1 0 792)" font-size="9.9626" font-family="NimbusRomNo9L" font-style="italic"><tspan y="-353.7891" x="48.964006 55.051156 62.523107 69.7161 74.6974 77.467 81.890399 86.8717 90.74715 95.72845 98.49805">A.Datensatz</tspan></text>
<text xml:space="preserve" transform="matrix(1 0 -0 1 0 792)" font-size="9.9626" font-family="NimbusRomNo9L"><tspan y="-338.5691" x="58.926004 66.119 70.5424 79.42903 86.62203 91.045429 93.815029 98.23842 103.21972 107.09517 111.51856 114.28816 124.27068 129.25199 137.00289 140.22081 144.64421 148.51967 152.39513 160.73383 163.50344 168.48473 172.36019 177.34148 181.76488 185.64034 190.06374 197.81464 206.15334 211.13463 216.11592 221.09722 231.63764 236.61893 241.04233 243.81194 248.23534 253.21663 257.64 260.4096 263.1792 273.1717 279.81675 282.58634 285.35594 290.33723 294.76063 297.5302">DerDatensatzumfasstinsgesamt2000gelabelteBilder.</tspan><tspan y="-326.6141" x="48.964006 56.157 58.926607 67.52433 73.06354 78.04484 81.92029 84.68989 87.45949 90.22909 95.21039 100.19169 104.06714 109.04844 113.47183 117.34728 120.11688 122.88648 130.63739 138.38829 143.36959 148.35088 157.51647 162.49776 166.92116 174.41304 181.05809 186.03939 191.02068 196.00197 200.98326 203.75287 208.73416 217.89975 224.5448 229.5261 234.35794 238.78134 246.83113 250.14868 256.79374 263.43879 270.9406 273.7102 282.8658 287.8471 292.2705">DiePositionsbestimmungderBoundingBoxes(BB)indem</tspan><tspan y="-314.65913" x="48.964006 53.945306 58.926607 63.907907 68.3313 72.75469 76.072238 81.053539 85.47693 88.24653 91.01613 95.43952 98.20912 102.632518 110.89151 118.08451 122.507907 125.277507 129.7009 134.68219 138.55765 142.98105 145.75066 153.46172 157.88512 161.20267 164.52022 169.50151 172.27112 177.25241 183.30968 186.07929 194.33827 198.76168 203.74297 207.61843 212.59972 215.36933 220.35062 223.12023 227.54363 235.81258 241.35178 244.12139 248.95323 253.37664 259.42396 266.26826 271.24955 276.23085 279.54838 284.52967 287.29927 292.28056 296.70396">unbearbeitetenDatensatzerfolgtinabsolutenPixelKoordina-</tspan><tspan y="-302.70314" x="48.964006 51.73361 56.157 61.1383 68.53055 75.72355 88.38601 93.36731 96.13691 105.4619 112.6549 117.6362 124.8292 129.2526 134.23389 139.21518 144.19647 149.17777 159.06066 164.04195 169.02324 178.91609 182.23365 189.98455 194.96584 197.73545 202.15885 209.90975 214.33315 219.31444 222.08405 224.85366 229.27706 232.5946 237.5759 242.55719 252.44008 257.4214 261.8448 265.72026 268.48985 272.91325 277.89454 282.31794 287.29924 292.28053 296.70393">ten.UmdieAnwendungundImplementierungbestehender</tspan><tspan y="-290.74815" x="48.964006 56.157 58.926607 63.907907 68.889209 72.20675 74.97635 77.74595 82.72725 90.47815 94.90154 105.07336 109.49675 119.668567 124.09196 127.4095 130.17911 134.60251 137.37212 141.79552 146.77681 149.54642 153.96982 157.28737 162.26866 169.94983 177.14282 181.56623 184.88378 189.86507 194.28847 204.46028 209.44158 212.21118 221.8251 230.43279 234.85619 238.17374 240.94335 250.55727 254.98067 259.96199 268.47004 275.11509 279.53849 283.41395 286.18354 288.95314 296.70405">Algorithmenzuerleichtern,werdendieWertezurBestim-</tspan><tspan y="-278.79316" x="48.964006 56.71491 61.69621 66.677509 77.84558 82.82688 87.250278 96.75459 99.52419 104.50549 109.48679 113.91019 116.67979 121.10318 132.27126 137.81046 142.79175 146.6672 149.43682 152.20642 154.97603 159.95732 171.13535 176.11664 181.09793 192.26599 199.45899">mungderlokalenPositionundGr</tspan><tspan y="-278.84315" x="203.606">&#x00a8;</tspan><tspan y="-278.79316" x="202.774 207.7553 212.73659 223.34676 228.32805 232.75145 242.25577 248.90082 261.73265 264.50224 275.6703 280.0937 282.86329 287.84458 292.26799">o&#x00df;ederBBineinem</tspan><tspan y="-266.83818" x="48.964006 54.503213 57.82076 62.244153 67.22545 70.54299 75.52429 79.947689 84.37108 88.24653 92.12198 94.89158 99.87288 110.074588 115.61379 120.037189 125.018489 128.33603 131.10564 133.87525 141.86525 144.63486 154.82659 158.14414 162.56754 165.33715 169.76055 172.53015 175.05069 179.88254 189.52634 196.37064 201.35193 206.33322 209.65077 214.63207 217.40167 222.38297 226.80637 229.57598 233.99938 244.20107 249.18236 256.93327 261.91456 266.0889 273.18226 277.60566 282.58695 287.56825 291.99165 294.76124 297.53083">PreprocessingSchrittinrelativeKoordinatenumgewandelt.</tspan><tspan y="-254.88317" x="48.964006 55.051156 60.032457 65.013759 69.43715 82.99625 90.18925 94.61264 97.93018 102.91148 107.33488">Zudemwerden</tspan></text>
<text xml:space="preserve" transform="matrix(1 0 -0 1 0 792)" font-size="9.9626" font-family="CMMI10" font-style="italic"><tspan y="-254.88317" x="118.119">x</tspan></text>
<text xml:space="preserve" transform="matrix(1 0 -0 1 0 792)" font-size="9.9626" font-family="NimbusRomNo9L"><tspan y="-254.88317" x="127.3 132.2813 137.26259">und</tspan></text>
<text xml:space="preserve" transform="matrix(1 0 -0 1 0 792)" font-size="9.9626" font-family="CMMI10" font-style="italic"><tspan y="-254.88317" x="145.731">y</tspan></text>
<text xml:space="preserve" transform="matrix(1 0 -0 1 0 792)" font-size="9.9626" font-family="NimbusRomNo9L"><tspan y="-254.88317" x="156.779 163.6233 168.6046 173.58589 176.90345 181.88474 184.65435 189.63564 194.05904 196.82865 201.25205 212.04154 216.46494 221.44623 230.56201 237.20706 241.63047 245.50592 248.27553 251.04514 258.79606 266.54698 271.52827 276.50956 287.29905 292.28034 296.70375">KoordinatenzurBestimmungder</tspan><tspan y="-242.92816" x="48.964006 51.73361 54.503213 59.484514 64.36619 68.78958 78.08469 83.06599 88.04729 92.47068 95.78822 100.21162 109.50672 115.59387 120.017269 124.89894 133.63616 138.61745 143.04085 150.68216 157.32721 168.28607 172.16153 181.45664 186.43793 194.18883 199.17012 203.34445 210.43782 214.86122 219.84252 224.8238 229.24721 232.01682 234.78643 241.59088 246.57218 250.99558 254.87104 263.0603 268.0416 270.8112 275.2346 279.11006 287.84727 292.82856 295.59815">linkenoberenEckederBBsoumgewandelt,dassdiesedie</tspan><tspan y="-230.97217" x="48.964006 54.503213 59.484514 63.359964 66.12956 68.89916 71.66876 76.65006 87.48937 92.47067 96.894069 106.06962 113.82052 116.59012 119.349758 122.119358 124.888957 129.31235 132.6299 137.0533 147.8926 154.7369 159.71819 164.69948 168.01703 172.99832 175.76793 180.74922 185.17263 187.94223 192.36563 203.20493 208.18622 212.60962 221.78517 228.43022 240.92333 244.24088 248.66428 252.53974 255.30934 258.07896 262.3529 267.3342 271.7576 276.7389 285.08757 292.28056 296.70396">PositiondermittlerenKoordinatenderBBfestlegen.Der</tspan><tspan y="-219.01717" x="48.964006 53.945306 58.3687 62.24415 66.66754 74.41844 77.18804 84.72973 91.92273 96.34612 99.11572 103.539119 108.52042 112.39587 116.81926 119.58886 127.14051 134.33351 137.10312 140.42067 148.52027 153.50156 156.27117 160.69457 165.67586 171.57372 178.76671 181.53632 189.078 193.86005 198.84134 206.95088 214.14388 219.12517 224.10646 229.08776 232.4053 236.8287 239.59832 242.36792 247.10015 257.41145 261.83485 269.58576 274.56706 277.88459 282.86589 287.84718 290.61677 295.04017">gesamteDatensatzwirdnichtwievonGoodfellowempfohlen</tspan><tspan y="-207.06217" x="48.964006 51.73361 60.24167 64.66506 67.43466 72.41596 76.839359 85.337459 91.07591 94.393459 98.81685 101.58645 106.56775 109.88529 115.9027 121.98985 126.413249 129.18285 131.95246 136.93375 141.35715 144.12676 146.89636 151.87766 156.85895 163.70326 168.68456 173.66585 182.1739 187.56366 191.98706 195.86252 198.63213 203.61342 208.03682 210.80643 215.22983 220.21112 224.08658 228.50998 231.27959 239.21979 244.20108 249.18238 251.95198 256.37538 259.6929 262.4625 266.8859 269.6555 272.42509 275.19468 281.2121 288.4051 293.38639 296.70393">ineinenTrain-,Validation-undTestdatensatzunterteilt.Auf-</tspan><tspan y="-195.10717" x="48.964006 53.945306 57.26285 62.244153 67.22545 75.604 80.5853 85.00869 91.71352 96.69482 101.11821 104.43575 107.20535 112.18665 117.16795 121.59135 124.90889 129.33229 137.71083 144.90383">grunddergeringerenGr</tspan><tspan y="-195.15717" x="149.05501">&#x00a8;</tspan><tspan y="-195.10717" x="148.223 153.2043 158.1856 166.00624 170.98754 175.41094 182.68364 189.87664 194.30004 197.06964 201.49304 206.47434 210.33983 214.76323 217.53284 221.95624 226.37964 233.65235 238.63364 243.05704 246.9325 251.3559 256.3372">o&#x00df;edesDatensatzesbeschr</tspan><tspan y="-195.15717" x="260.21003">&#x00a8;</tspan><tspan y="-195.10717" x="259.657 264.0804 269.0617 273.94337 278.36677 286.7453 293.9383 296.7079">ankenwir</tspan><tspan y="-183.15216" x="48.96402 53.94532 58.92662 66.44838 70.87177 75.85307 82.80697 87.23036 89.99996 94.98126 103.050968 110.243968 115.225269 117.994869 122.41826 125.7358 128.5054 132.9288 135.69841 138.46802 143.44931 148.4306 157.05821 159.82782 168.44547 171.21508 175.63848 180.61977 183.38938 188.37067 191.14028 193.90988 198.33329 206.96089 211.3843 218.57729 223.00069 229.41661 234.3979 237.15755 241.033 243.80261 248.7839 253.7652 258.7465 261.51609 269.5858 274.0092 278.99049">unsaufeineUnterteilunginlediglichzweidisjunktezuf</tspan><tspan y="-183.20217" x="282.862">&#x00a8;</tspan><tspan y="-183.15216" x="282.309 286.7324 289.50199 292.27159 295.04118">allig</tspan><tspan y="-171.19716" x="48.96399 53.94529 58.368684 62.244134 65.01373 67.78333 75.53423 83.28513 86.05473 93.73589 100.928897 105.910198 108.679798 113.10319 116.42073 124.17163 128.59503 133.57633 138.55762 142.98102 147.96231 153.72069 160.91368 163.68329 171.36446 175.78786 179.10541 182.98087 185.75048 193.43164 200.62464 205.60593 208.37554 212.79894 216.11649 223.86739 228.29079 233.27208 238.25337 245.9445 250.9258 258.6767 261.8946 266.318 270.19346 274.0689 280.09629 285.07759 290.05888 295.04017">bestimmteUntermengen.DieersteUntermengeumfasst1600</tspan><tspan y="-159.24117" x="48.96399 54.70245 58.019998 62.44339 65.21299 70.19429 72.96389 77.94519 82.92649 86.80194 91.78324 96.206638 98.976238 103.39963 108.38093 115.36471 124.22146 126.99106 134.2538 139.23509 143.6585 153.14289 158.88134 162.19889 166.62229 169.39189 174.37319 179.35448 183.22994 188.21123 192.63463 195.40424 199.82764 209.30207 216.49506 220.91846 224.23601 229.2173 233.6407 243.11513 248.09642 250.86603 259.78257 265.17234 269.59574 272.91328 277.33668 285.0876 289.511 292.28059 296.70399">Trainingsdaten.MitdenTraingsdatenwerdendieParameter</tspan><tspan y="-147.28617" x="48.96399 53.94529 58.368684 67.006259 71.98756 76.41095 81.39225 84.70979 89.69109 94.67239 99.09579 101.86539 106.28878 116.0322 123.225208 127.6486 130.4182 134.8416 139.265 147.90258 152.88387 157.30727 160.07688 164.50028 167.81783 172.79912 175.56873 182.82149 190.01448 192.77413 201.95964 206.38304 213.57604 217.99944 220.76905 223.53865 232.72417 239.91716 244.89846 247.66806 252.09146 255.40901 263.1599 267.5833 272.5646 277.5459 286.7314 294.48234 297.25193">desneuronalenNetzesgelernt.DiezweiteUntermengemit</tspan><tspan y="-135.33116" x="48.96399 51.733594 56.714895 60.590345 65.57164 69.99503 73.87048 78.29388 86.04478 93.586467 98.567768 103.549068 113.312419 119.95747 122.72707 125.49667 130.47797 134.90137 138.21892 147.97229 150.7419 154.61736 162.15904 167.14034 172.12163 175.99709 180.42049 188.52008 193.90984 198.33324 202.2087 204.9783 209.9596 214.383 217.1526 221.576 226.5573 230.43276 234.85616 237.6158 242.0392 249.31189 258.16865 260.93824 263.70783 268.68913 271.4587 274.2283 277.54585 286.74134 291.72264 296.14604">insgesamt400BildernistunserTestdatensatz.Mithilfedes</tspan><tspan y="-123.37616" x="48.96399 54.35376 58.777154 62.652605 65.4222 70.4035 74.8269 77.5965 82.01989 87.00119 90.87664 95.30003 98.06963 102.49303 106.91642 115.66358 119.53903 123.962429">Testdatensatzessch</tspan><tspan y="-123.42616" x="129.49399">&#x00a8;</tspan><tspan y="-123.37616" x="128.941 133.3644 136.134 140.5574 144.9808 154.8338 162.0268 164.7964 172.98566 177.96695 182.39035 192.24335 199.43634 203.85974 208.84104 213.26444 216.58199 221.00539 223.775 226.5446 230.42006 233.18967 237.61307 240.93062 245.91191 250.8932 255.8745 259.74995 263.06748 267.49089 272.47218 275.24177 279.66517 287.84446 292.26786 295.03746">atzenwirdenGeneralisierungsfehlerein</tspan><tspan y="-111.42116" x="48.963998 53.945299 58.926599 67.56417 72.396038 76.81943 80.13697 84.01242 88.99372 93.417118 98.398418 102.82181 111.45938 115.33483 123.96244 128.94374 133.92504 137.24259 141.66599 150.30356 154.72696 157.49657 162.47786 170.55754 174.98094 179.96224 182.73184 186.6073 191.5886 194.90615 199.32955 203.75295 208.73424 213.15764 218.13893 223.12023 231.1999 239.80759 244.23099 249.21228 255.6282 260.6095 265.0329 272.0067 279.1997 284.181 289.1623 293.5857 296.70399">undversuchensodurcheineentsprechendeWahlderHyper-</tspan><tspan y="-99.466159" x="48.963998 53.945299 58.36869 61.686239 66.109638 73.860538 78.28393 81.05353 85.47692 92.17178 96.59518 99.36478 104.34608">parametereine</tspan><tspan y="-101.63715" x="114.09">&#x00a8;</tspan><tspan y="-99.466159" x="112.153 119.346 124.3273 128.7507 132.06826 136.49166 141.47295 146.45424 150.87764 154.7531 158.62856 163.60985 168.59114 176.94976 181.93105 186.35445 193.61719 198.59848 203.02188 208.00318 211.32073 216.30202 221.28331 225.70671 228.47632 232.89972 241.25833 248.45133 252.87473 255.64434 260.06773 264.49113 271.7439 276.1673 281.1486 287.84346 292.82475 295.59434">UberanpassungdesneuronalenNetzesaufdie</tspan><tspan y="-87.510158" x="48.964 54.702459 58.020006 62.443399 65.213 70.1943 72.9639 77.9452 82.9265 86.80195 91.78325 96.20664 98.97624 103.399639 110.81181 115.23521 122.647388 127.47925 131.90265 135.2202 138.53775 141.30736 146.28865 151.26995 155.69335 159.0109 163.99219 168.91371 176.1067 182.96099 185.73059 193.1328 198.11409 202.53749 208.28592 215.47891 220.4602 223.22982 227.65322 230.97077 233.74037 238.16378 240.93338 243.70299 248.68428 253.66558 261.07777 266.05906 270.48246 276.23088 283.42387 287.84727 290.61686 295.04026">Trainingsdatenzuverringern.DainderUnterteilungderDaten</tspan><tspan y="-75.55515" x="48.964 51.733606 56.156999 61.138299 63.9079 68.8892 71.6588 74.4284 78.85179 87.21041 91.633808 98.826808 103.2502 109.38715 113.2626 116.0322 120.4556 123.2252 129.37212 134.35341 137.67096 142.09436 148.23133 153.21262 155.98223 159.85768 162.62729 167.60858 172.58988 177.57117 180.34078 188.1415 195.33449 200.31578 203.08539 207.50879 210.82634 218.57724 223.00064 227.98194 232.96323 237.38663 245.74524 250.72653 255.14994 262.39277 267.37406 271.79747 275.6729 280.0963 287.84724 290.61683 295.04023">lediglichzweistattdreidisjunkteUntermengendesgesamten</tspan></text>
<text xml:space="preserve" transform="matrix(1 0 -0 1 0 792)" font-size="9.9626" font-family="NimbusRomNo9L"><tspan y="-589.6272" x="311.978 319.171 323.5944 326.36399 330.78739 335.76869 339.64414 344.06755 346.83714 351.26054 355.68394 362.60795 367.4398 371.8632 375.18074 382.37373 386.79713 391.7784 396.7597 401.1831 407.00126 414.19425 419.17555 422.49308 427.47438 431.89778 436.87907 442.40834 449.60133 452.3709 455.68846 463.7183 468.6996 473.123 479.48908 486.68208 491.10548 496.08677 500.51017 503.8277 508.2511 511.0207 513.7903 517.6657 520.4353 524.8587 528.1763 533.1576 538.1389 543.12026 546.99569 550.31326 554.73666 559.71798">Datensatzesverwendetwurden,wirdderGeneralisierungsfeh-</tspan><tspan y="-577.6722" x="311.978 314.7476 319.171 325.83598 330.25938 335.24067 341.90565 346.88694 351.31034 362.4087 367.79847 372.22187 376.09733 378.8669 383.8482 388.2716 391.0412 395.4646 400.4459 404.32136 408.74476 411.51435 419.2752 424.05726 429.03855 432.35609 436.77949 441.76078 445.63624 449.5117 452.28129 456.70469 461.68598 464.45558 467.22517 469.99476 474.41816 482.7469 487.72819 492.70948 495.47908 499.90248 503.22 507.09547 511.51887">leraufdemTestdatensatzvoraussichtlichuntersch</tspan><tspan y="-577.72219" x="517.055">&#x00a8;</tspan><tspan y="-577.6722" x="516.502 520.9254 523.695 528.1184 530.888 536.7261 545.3338 549.7572 552.5268 555.2964 559.7198">atzt.Weiter</tspan><tspan y="-565.71719" x="311.97804 316.95933 319.7289 322.4985 328.08753 332.51094 339.21577 343.63917 351.43989 358.08494 362.50834 366.93174 371.35514 376.33644 379.10603 383.52943 388.5107 393.83076 398.81205 403.23545 407.1109 413.8058 418.78709 423.21049 429.3574 434.74717 439.17057 443.04603 445.8156 450.7969 455.2203 457.9899 462.4133 467.3946 471.27006 475.69346 478.46305 485.70588 490.12928 492.89888 497.88017 505.13294 508.45048 512.87387 515.64346 520.06686 522.8364 525.35696 533.15768 538.139 542.5624 545.87997 548.64956 553.63088 558.6122">gilteszuBeachten,dassderTestdatensatzeinerelativgeringe</tspan><tspan y="-553.76217" x="311.97804 319.17103 324.1523 328.5757 332.9991 337.9804 343.3602 347.7836 355.3751 362.02015 364.78974 367.55934 372.54063 376.96403 380.28157 387.87306 392.29646 397.27775 400.04734">AnzahlanBildernenth</tspan><tspan y="-553.81216" x="405.58204">&#x00a8;</tspan><tspan y="-553.76217" x="405.02903 409.45243 412.22203 414.9916 420.09248 425.48225 430.46354 433.23313 438.21443 440.984 443.7536 448.177 455.7685 460.1919 463.3301 468.3114 471.081 476.0623 481.44209 485.31755 488.08714 492.51054 500.10203 504.52543 507.295 512.2763 519.30996 523.18539 525.95498 530.37838 533.14797 535.91757 539.79299 542.56259 545.33218 549.2076 553.631 558.6123">alt.Folglichergibtsicheinestatistische</tspan><tspan y="-541.8071" x="311.97804 319.17103 324.1523 328.02778 330.79737 335.22077 340.20207 344.62547 347.943 352.9243 357.3477 360.11729 366.055 371.0363 375.4597">Unsicherheitbez</tspan><tspan y="-541.8571" x="380.71205">&#x00a8;</tspan><tspan y="-541.8071" x="379.88005 384.86134 389.84263 392.6122 395.3818 399.8052 407.95463 412.9359 417.3593 423.84498 428.26838 433.24967 436.01927 439.8947 444.876 448.19355 452.61695 457.04035 462.02165 466.44505 471.42634 476.40763 480.83103 488.97047 495.05763 499.48103 502.2506 506.12608 508.89567 513.87698 518.8583 523.8396 527.715 535.46597 539.88937 542.65896 545.9765 548.7461 553.6278 558.0512">uglichderentsprechendenLeistungsmetriken</tspan><tspan y="-529.8521" x="311.97804 316.95933 321.9406 332.15229 336.02775 341.00904 348.75996 351.52955 359.51954 364.50083 367.27043 370.04 378.03999 382.46339 391.55924 396.54054 399.31013 408.9639 415.05107 419.47447 422.24406 426.1195 428.8891 433.8704 438.85169 443.83299 447.70845 455.45936 459.88276 462.65235 465.96989 468.73948 473.62113 478.04454 488.24623 493.2275 497.6509 506.19883 511.03068 515.45407 518.7716 522.64706 527.07046 532.05178 534.82138 539.24478 544.2261 548.6495 553.6308 558.0542">undsomitgiltesdieLeistungsmetrikenderverschiedenen</tspan><tspan y="-517.8961" x="311.97804 319.17103 321.9406 326.9219 331.9032 335.22074 337.99034 340.75993 345.7412 353.49214 357.91554 366.94166 374.69258 377.46217 384.2666 388.69 391.4596 396.4409 400.8643 408.22666 412.65007 417.63136 420.40095 424.2764 429.2577 432.57524 436.99864 441.42204 446.40333 450.82673 455.808 460.7893 465.2127 474.22886 480.13667 485.11796 488.4355 492.31095 495.08055 499.50395 504.48524 511.29966 515.723 518.4926 523.47396 527.89736 532.87869 537.86 541.17758 546.1589 551.1402 555.5636 560.5449">AlgorithmenmiteinerentsprechendenVorsichteinzuordnen.</tspan><tspan y="-505.94114" x="311.97804 319.17103 322.48857 327.87834 332.85963 335.6292 340.6105 343.92805 350.5731 353.89064 358.87193 362.74739 366.62284 371.35508 375.77848 378.54808 381.31767 386.29896 390.72236 393.49195 396.26155 401.24284 410.74714 413.51673 417.39219 424.69477 429.11817 431.88777 436.86906 445.81547">K-Fold-CrossvalidationisteineM</tspan><tspan y="-505.99113" x="455.50605">&#x00a8;</tspan><tspan y="-505.94114" x="454.67506 459.65635 464.63764 467.40724 470.17683 474.60023 479.5815 484.46318 488.88658 491.65617 498.94877 503.93006 506.69966 511.12306 514.9985 523.95486 531.1478 536.12918 540.0046 542.7742 547.1976 552.1789 556.6023 559.7206">oglichkeitdieseUnsicher-</tspan><tspan y="-493.98616" x="311.97804 316.95933 321.38273 324.1523 331.28553 335.70893 345.05384 352.80476 355.57435 360.55564 363.32524 371.07615 373.84574 378.26914 381.58668 386.01008 390.99137 397.84565 405.03865 407.80824 416.59526 423.78825 428.76954 435.96253 440.38594 445.36723 450.3485 455.3298 460.3111 469.656 474.6373 477.4069 481.8303 485.70576 490.12916 497.8103 506.66706 511.09046 513.86007 518.8414 523.8227 528.804 537.59109 542.5724 546.9958 551.9771 556.4005 559.7181">heitzuminimieren.DieAnwendungdieserMethodebedarf</tspan><tspan y="-482.03117" x="311.97804 314.74763 319.17103 324.1523 329.1336 333.557 342.7226 347.146 349.9156 354.89689 359.32029 368.48588 371.8034 376.2268 378.9964 383.4198 386.1894 388.70994 397.87553 402.8568 407.8381 412.8194 417.2428 426.3984 430.8218 435.8031">jedocheinenrelativhohenzus</tspan><tspan y="-482.08116" x="440.23506">&#x00a8;</tspan><tspan y="-482.03117" x="439.68205 444.10545 446.87504 451.29844 454.06803 456.83763 461.26103 466.2423 470.6657 479.8313 486.47636 490.89976 495.32316 500.30445 504.72785 509.70915 514.1325 519.11386 522.4314 529.5248 533.9482 538.9295 548.0951 553.0764 558.05776">atzlichenRechenaufwandund</tspan><tspan y="-470.07618" x="311.97804 319.17103 321.9406 325.25816 333.72636 336.49595 347.73377 354.3788 358.80223 363.7835 371.53443 375.95783 384.42604 389.40733 392.1769 396.6003 400.47578 404.89918 411.7036 418.8966 422.21415 427.19544 431.61885 434.38844 440.64494 445.62623 448.3958 452.8192 457.8005 464.057 468.88887 473.31227 476.6298 483.82279 488.2462 493.22749 498.20878 502.63218 505.40177 511.37934 514.6969 519.6782">wirdimRahmendieserArbeitnichtverwendet.[1]</tspan></text>
<text xml:space="preserve" transform="matrix(1 0 -0 1 0 792)" font-size="9.9626" font-family="NimbusRomNo9L" font-style="italic"><tspan y="-452.76618" x="311.97804 318.0652 325.53715 331.6243 335.13114 339.4051 344.38639 347.15599 349.92558 354.34898 358.77238 361.54197 366.52326">B.Architektur</tspan></text>
<text xml:space="preserve" transform="matrix(1 0 -0 1 0 792)" font-size="9.9626" font-family="NimbusRomNo9L"><tspan y="-437.90119" x="321.94004 325.25758 337.75068 344.39573 348.81913 353.8004 361.55134 365.97474 375.7082 380.68949 385.11289 393.1726 400.3656 403.68315 408.66444 413.08784 415.85743 423.3692 428.20106 432.62446 435.942 443.13499 447.55839 452.53968 457.52098 461.94438 471.67784 478.87083 481.6404 489.70014 494.12355 496.89314 506.6166 513.26168 518.243 522.8258 527.60787 532.5892 535.35879 540.3401 543.1097 545.8793 550.8606 555.8419 560.2653">ImRahmenderArbeitverwendenwireinConvolutional</tspan><tspan y="-425.9462" x="311.97804 319.17103 323.59443 328.5757 331.89326 336.87455 341.85585 346.27925 351.61918 358.81217 363.23558 366.00517 373.0985 378.0798 381.39735 386.37864 391.43965 398.63264 403.05604 405.82563 410.23908 415.22038 419.64378 426.08958 429.96504 432.73463 437.15803 444.70967 448.5851 451.3547 455.7781 459.09565 466.64729 471.07069 478.6223 483.6036 488.027 498.33833 505.23243 512.4254 518.5126 528.27597 535.46896 539.89236 542.6619 549.7553 554.73666 558.0542">NeuronalNetwork,welchessichstarkandemYOLONetwork</tspan><tspan y="-413.9912" x="311.97804 316.76008 321.74137 331.25566 337.9007 342.3241 347.3054 355.0563 360.0376 372.3215 375.63905 380.62034 388.47087 393.45216 396.76969 399.53929 403.96269 408.94398 411.71357 414.48316 418.90657 422.2241 424.99369 432.02729 435.34483 444.8591 449.8404 454.2638 462.11433 466.53773 471.519 476.5003 480.9237 485.905 490.3284 494.20387 498.0793 500.8489 505.2723 514.78659 520.8737 525.2971 528.6147 532.4901 535.2597 540.241 549.7553 554.73666 559.16006">vonRedmom[2]orientiert.InderangepasstenVersiondes</tspan><tspan y="-402.03523" x="311.97804 319.17103 323.59443 326.364 330.7874 337.9804 342.4038 345.72135 350.70265 359.8782 364.71006 369.13346 372.451 379.64399 384.06739 389.04869 394.02998 398.45338 408.7248 415.9178 418.68739 427.30503 432.28633 435.0559 439.4793 444.4606 452.52033 459.71333 462.4829 472.20643 474.976 485.24745 490.22874 494.65214 503.26979 508.25108 511.5686 515.44406 520.42538">Netzwerksverwendenwirnichtwieinderurspr</tspan><tspan y="-402.0852" x="524.57608">&#x00a8;</tspan><tspan y="-402.03523" x="523.7441 528.7254 533.7067 538.68807 541.45767 544.22726 548.65066 553.63198 558.05538">unglichen</tspan><tspan y="-390.08024" x="311.9781 318.06526 322.48866 325.80619 329.68165 332.45124 337.43254 345.5321 350.5134 355.4947 361.10365 364.9791 369.9604 374.94169 379.92298 384.34638 387.6639 395.7635 398.53309 402.95649 407.93778 410.70738 415.68867 418.45826 421.22785 425.65126 433.75083 438.73213 446.8317 453.47676 458.45805 463.04084 467.82289 472.80418 475.57377 480.55506 483.32466 486.09425 491.07554 496.05683 500.48023 506.3681 512.45529 516.87869 521.86 526.2834 529.20248 534.8114 539.7927 544.2161 547.5337 552.515 555.2846 560.2659">Version24,sondernlediglich15ConvolutionalLayer,gefolgt</tspan><tspan y="-378.12525" x="311.9781 316.76014 321.74143 330.20964 334.63304 341.82603 346.24943 352.50593 358.04515 363.02644 365.79603 368.5656 373.5469 376.86445 383.5095 388.49079 393.47209 398.45338 402.87678 407.30018 410.06977 414.49317 422.96138 429.04853 433.47193 438.45323 442.87663 446.19416 454.66236 457.9799 461.85536 464.62495 469.04835 474.02964 481.93995 489.13294 494.11424 499.09553 501.8651 504.6347 509.616 514.5973 519.5786 528.0469 533.0282 536.34579">vonzweiFully-ConnectedLayern(sieheAbbildung1).</tspan></text>
<g>
<clipPath id="cp0">
<path transform="matrix(.2566,0,0,-.2566,316.212,504.694)" d="M 0 0 L 931.7588 0 L 931.7588 296.67494 L 0 296.67494 Z "/>
</clipPath>
<g clip-path="url(#cp0)">
<path transform="matrix(.2566,0,0,.2566,316.212,428.5672)" stroke-width=".75" stroke-linecap="round" stroke-miterlimit="4" stroke-linejoin="miter" fill="none" stroke="#000000" d="M 723.434 70.125 L 723.434 124.578 M 723.434 124.578 L 599.895 129.477 M 723.434 124.578 L 737.637 145.348 M 723.434 70.125 L 599.895 75.023 M 723.434 70.125 L 737.637 90.895 M 794.758 35.273 L 794.758 171.285 M 794.758 171.285 L 779.316 171.898 M 794.758 171.285 L 797.301 175.004 M 779.316 35.883 L 779.316 171.898 M 779.316 171.898 L 781.859 175.617 M 599.895 75.023 L 599.895 129.477 M 599.895 129.477 L 614.094 150.246 M 557.563 76.699 L 557.563 131.156 M 557.563 131.156 L 418.578 136.668 M 557.563 131.156 L 571.766 151.926 M 781.859 175.617 L 797.301 175.004 M 797.301 38.992 L 797.301 175.004 M 781.859 39.605 L 781.859 175.617 M 599.895 75.023 L 614.094 95.793 M 557.563 76.699 L 418.578 82.211 M 557.563 76.699 L 571.766 97.469 "/>
<path transform="matrix(.2566,0,0,.2566,316.212,428.5672)" stroke-width=".75" stroke-linecap="round" stroke-miterlimit="4" stroke-linejoin="miter" fill="none" stroke="#000000" d="M 374.977 74.434 L 374.977 144.082 M 374.977 144.082 L 257.848 148.727 M 374.977 144.082 L 391.723 168.57 "/>
<path transform="matrix(.2566,0,0,.2566,316.212,428.5672)" stroke-width=".75" stroke-linecap="round" stroke-miterlimit="4" stroke-linejoin="miter" fill="none" stroke="#000000" d="M 794.758 35.273 L 779.316 35.883 M 794.758 35.273 L 797.301 38.992 M 418.578 82.211 L 418.578 136.668 M 418.578 136.668 L 432.781 157.438 M 779.316 35.883 L 781.859 39.605 M 214.246 71.305 L 214.246 156.141 M 214.246 156.141 L 121.59 159.813 M 214.246 156.141 L 233.531 184.348 M 418.578 82.211 L 432.781 102.98 M 781.859 39.605 L 797.301 38.992 M 374.977 74.434 L 257.848 79.078 M 374.977 74.434 L 391.723 98.926 M 257.848 79.078 L 257.848 148.727 M 257.848 148.727 L 274.59 173.215 M 76.715 57.746 L 76.715 172.965 M 76.715 172.965 L 52.238 173.934 M 76.715 172.965 L 101.086 208.609 M 52.238 58.719 L 52.238 173.934 M 52.238 173.934 L 76.613 209.578 M 377.574 89.27 L 377.574 102.418 M 377.574 102.418 L 260.441 107.063 M 377.574 102.418 L 379.773 105.637 M 377.574 89.27 L 377.574 102.418 M 377.574 102.418 L 379.773 105.637 M 377.574 102.418 L 421.715 93.063 "/>
<path transform="matrix(.2566,0,0,.2566,316.212,428.5672)" d="M 377.574 102.418 L 377.574 89.27 L 421.715 93.063 Z M 377.574 102.418 " fill="#ffffff" fill-opacity=".4"/>
<path transform="matrix(.2566,0,0,.2566,316.212,428.5672)" stroke-width=".75" stroke-linecap="round" stroke-miterlimit="4" stroke-linejoin="miter" fill="none" stroke="#000000" d="M 377.574 89.27 L 260.441 93.914 M 377.574 89.27 L 379.773 92.488 M 377.574 89.27 L 379.773 92.488 M 377.574 89.27 L 421.715 93.063 M 121.59 74.977 L 121.59 159.813 M 121.59 159.813 L 140.875 188.02 "/>
<path transform="matrix(.2566,0,0,.2566,316.212,428.5672)" d="M 379.773 105.637 L 377.574 102.418 L 377.574 89.27 Z M 377.574 89.27 L 377.574 102.418 L 379.773 105.637 Z M 377.574 89.27 " fill="#ffffff" fill-opacity=".4"/>
<path transform="matrix(.2566,0,0,.2566,316.212,428.5672)" stroke-width=".75" stroke-linecap="round" stroke-miterlimit="4" stroke-linejoin="miter" fill="none" stroke="#000000" d="M 379.773 105.637 L 421.715 93.063 M 379.773 92.488 L 421.715 93.063 "/>
<path transform="matrix(.2566,0,0,.2566,316.212,428.5672)" d="M 379.773 105.637 L 377.574 102.418 L 421.715 93.063 Z M 377.574 89.27 L 377.574 102.418 L 260.441 93.914 Z M 377.574 89.27 L 379.773 92.488 L 421.715 93.063 Z M 377.574 89.27 " fill="#ffffff" fill-opacity=".4"/>
<path transform="matrix(.2566,0,0,.2566,316.212,428.5672)" stroke-width=".75" stroke-linecap="round" stroke-miterlimit="4" stroke-linejoin="miter" fill="none" stroke="#000000" d="M 257.848 79.078 L 274.59 103.57 M 214.246 71.305 L 121.59 74.977 M 214.246 71.305 L 233.531 99.512 "/>
<path transform="matrix(.2566,0,0,.2566,316.212,428.5672)" d="M 379.773 92.488 L 379.773 105.637 L 377.574 89.27 Z M 377.574 89.27 L 379.773 105.637 L 379.773 92.488 Z M 377.574 89.27 " fill="#ffffff" fill-opacity=".4"/>
<path transform="matrix(.2566,0,0,.2566,316.212,428.5672)" stroke-width=".75" stroke-linecap="round" stroke-miterlimit="4" stroke-linejoin="miter" fill="none" stroke="#000000" d="M 614.094 150.246 L 737.637 145.348 M 737.637 90.895 L 737.637 145.348 "/>
<path transform="matrix(.2566,0,0,.2566,316.212,428.5672)" d="M 379.773 92.488 L 379.773 105.637 L 421.715 93.063 Z M 379.773 92.488 " fill="#ffffff" fill-opacity=".4"/>
<path transform="matrix(.2566,0,0,.2566,316.212,428.5672)" stroke-width=".75" stroke-linecap="round" stroke-miterlimit="4" stroke-linejoin="miter" fill="none" stroke="#000000" d="M 262.641 110.281 L 379.773 105.637 M 379.773 92.488 L 379.773 105.637 M 379.773 105.637 L 379.773 92.488 "/>
<path transform="matrix(.2566,0,0,.2566,316.212,428.5672)" d="M 377.574 102.418 L 260.441 107.063 L 260.441 93.914 Z M 379.773 92.488 L 377.574 89.27 L 260.441 93.914 Z M 379.773 105.637 L 262.641 110.281 L 377.574 102.418 Z M 379.773 105.637 " fill="#ffffff" fill-opacity=".4"/>
<path transform="matrix(.2566,0,0,.2566,316.212,428.5672)" stroke-width=".75" stroke-linecap="round" stroke-miterlimit="4" stroke-linejoin="miter" fill="none" stroke="#000000" d="M 262.641 97.133 L 379.773 92.488 "/>
<path transform="matrix(.2566,0,0,.2566,316.212,428.5672)" d="M 262.641 110.281 L 260.441 107.063 L 377.574 102.418 Z M 262.641 110.281 " fill="#ffffff" fill-opacity=".4"/>
<path transform="matrix(.2566,0,0,.2566,316.212,428.5672)" stroke-width=".75" stroke-linecap="round" stroke-miterlimit="4" stroke-linejoin="miter" fill="none" stroke="#000000" d="M 567.387 109.59 L 567.387 122.738 M 567.387 122.738 L 428.402 128.25 M 567.387 122.738 L 569.586 125.957 M 567.387 109.59 L 567.387 122.738 M 567.387 122.738 L 569.586 125.957 M 567.387 122.738 L 610.816 114.906 M 260.441 93.914 L 260.441 107.063 M 260.441 107.063 L 262.641 110.281 "/>
<path transform="matrix(.2566,0,0,.2566,316.212,428.5672)" d="M 567.387 122.738 L 567.387 109.59 L 610.816 114.906 Z M 567.387 122.738 " fill="#ffffff" fill-opacity=".4"/>
<path transform="matrix(.2566,0,0,.2566,316.212,428.5672)" stroke-width=".75" stroke-linecap="round" stroke-miterlimit="4" stroke-linejoin="miter" fill="none" stroke="#000000" d="M 567.387 109.59 L 610.816 114.906 M 569.586 125.957 L 610.816 114.906 M 569.586 112.809 L 610.816 114.906 "/>
<path transform="matrix(.2566,0,0,.2566,316.212,428.5672)" d="M 262.641 110.281 L 379.773 105.637 L 379.773 92.488 Z M 262.641 110.281 " fill="#ffffff" fill-opacity=".4"/>
<path transform="matrix(.2566,0,0,.2566,316.212,428.5672)" stroke-width=".75" stroke-linecap="round" stroke-miterlimit="4" stroke-linejoin="miter" fill="none" stroke="#000000" d="M 567.387 109.59 L 428.402 115.102 M 567.387 109.59 L 569.586 112.809 M 567.387 109.59 L 569.586 112.809 M 76.715 57.746 L 52.238 58.719 M 76.715 57.746 L 101.086 93.395 M 260.441 93.914 L 262.641 97.133 "/>
<path transform="matrix(.2566,0,0,.2566,316.212,428.5672)" d="M 569.586 125.957 L 567.387 122.738 L 610.816 114.906 Z M 569.586 125.957 L 567.387 122.738 L 567.387 109.59 Z M 567.387 109.59 L 567.387 122.738 L 569.586 125.957 Z M 262.641 97.133 L 379.773 92.488 L 260.441 93.914 Z M 567.387 109.59 L 569.586 112.809 L 610.816 114.906 Z M 567.387 109.59 " fill="#ffffff" fill-opacity=".4"/>
<path transform="matrix(.2566,0,0,.2566,316.212,428.5672)" stroke-width=".75" stroke-linecap="round" stroke-miterlimit="4" stroke-linejoin="miter" fill="none" stroke="#000000" d="M 614.094 95.793 L 737.637 90.895 M 52.238 58.719 L 76.613 94.363 "/>
<path transform="matrix(.2566,0,0,.2566,316.212,428.5672)" d="M 260.441 93.914 L 260.441 107.063 L 262.641 97.133 Z M 260.441 93.914 " fill="#ffffff" fill-opacity=".4"/>
<path transform="matrix(.2566,0,0,.2566,316.212,428.5672)" stroke-width=".75" stroke-linecap="round" stroke-miterlimit="4" stroke-linejoin="miter" fill="none" stroke="#000000" d="M 121.59 74.977 L 140.875 103.184 "/>
<path transform="matrix(.2566,0,0,.2566,316.212,428.5672)" d="M 567.387 109.59 L 567.387 122.738 L 428.402 115.102 Z M 262.641 97.133 L 262.641 110.281 L 379.773 92.488 Z M 569.586 112.809 L 569.586 125.957 L 610.816 114.906 Z M 569.586 112.809 L 569.586 125.957 L 567.387 109.59 Z M 567.387 109.59 L 569.586 125.957 L 569.586 112.809 Z M 260.441 107.063 L 262.641 110.281 L 262.641 97.133 Z M 260.441 107.063 " fill="#ffffff" fill-opacity=".4"/>
<path transform="matrix(.2566,0,0,.2566,316.212,428.5672)" stroke-width=".75" stroke-linecap="round" stroke-miterlimit="4" stroke-linejoin="miter" fill="none" stroke="#000000" d="M 430.602 131.469 L 569.586 125.957 M 569.586 112.809 L 569.586 125.957 M 569.586 125.957 L 569.586 112.809 M 614.094 95.793 L 614.094 150.246 M 221.066 146.051 L 221.066 159.199 M 221.066 159.199 L 223.27 162.418 M 221.066 159.199 L 264.723 158.066 M 221.066 146.051 L 221.066 159.199 M 221.066 159.199 L 128.41 162.875 M 221.066 159.199 L 223.27 162.418 M 262.641 97.133 L 262.641 110.281 "/>
<path transform="matrix(.2566,0,0,.2566,316.212,428.5672)" d="M 569.586 112.809 L 567.387 109.59 L 428.402 115.102 Z M 569.586 112.809 " fill="#ffffff" fill-opacity=".4"/>
<path transform="matrix(.2566,0,0,.2566,316.212,428.5672)" stroke-width=".75" stroke-linecap="round" stroke-miterlimit="4" stroke-linejoin="miter" fill="none" stroke="#000000" d="M 221.066 146.051 L 264.723 158.066 M 223.27 162.418 L 264.723 158.066 M 223.27 149.27 L 264.723 158.066 "/>
<path transform="matrix(.2566,0,0,.2566,316.212,428.5672)" d="M 221.066 159.199 L 221.066 146.051 L 264.723 158.066 Z M 567.387 122.738 L 428.402 128.25 L 428.402 115.102 Z M 569.586 125.957 L 430.602 131.469 L 567.387 122.738 Z M 569.586 125.957 " fill="#ffffff" fill-opacity=".4"/>
<path transform="matrix(.2566,0,0,.2566,316.212,428.5672)" stroke-width=".75" stroke-linecap="round" stroke-miterlimit="4" stroke-linejoin="miter" fill="none" stroke="#000000" d="M 430.602 118.32 L 569.586 112.809 M 221.066 146.051 L 223.27 149.27 M 221.066 146.051 L 128.41 149.727 M 221.066 146.051 L 223.27 149.27 "/>
<path transform="matrix(.2566,0,0,.2566,316.212,428.5672)" d="M 223.27 162.418 L 221.066 159.199 L 264.723 158.066 Z M 430.602 131.469 L 428.402 128.25 L 567.387 122.738 Z M 221.066 146.051 L 221.066 159.199 L 223.27 162.418 Z M 223.27 162.418 L 221.066 159.199 L 221.066 146.051 Z M 223.27 162.418 " fill="#ffffff" fill-opacity=".4"/>
<path transform="matrix(.2566,0,0,.2566,316.212,428.5672)" stroke-width=".75" stroke-linecap="round" stroke-miterlimit="4" stroke-linejoin="miter" fill="none" stroke="#000000" d="M 432.781 157.438 L 571.766 151.926 M 571.766 97.469 L 571.766 151.926 "/>
<path transform="matrix(.2566,0,0,.2566,316.212,428.5672)" d="M 221.066 146.051 L 223.27 149.27 L 264.723 158.066 Z M 221.066 146.051 L 221.066 159.199 L 128.41 149.727 Z M 430.602 131.469 L 569.586 125.957 L 569.586 112.809 Z M 430.602 131.469 " fill="#ffffff" fill-opacity=".4"/>
<path transform="matrix(.2566,0,0,.2566,316.212,428.5672)" stroke-width=".75" stroke-linecap="round" stroke-miterlimit="4" stroke-linejoin="miter" fill="none" stroke="#000000" d="M 428.402 115.102 L 428.402 128.25 M 428.402 128.25 L 430.602 131.469 "/>
<path transform="matrix(.2566,0,0,.2566,316.212,428.5672)" d="M 223.27 149.27 L 223.27 162.418 L 264.723 158.066 Z M 221.066 146.051 L 223.27 162.418 L 223.27 149.27 Z M 223.27 149.27 L 223.27 162.418 L 221.066 146.051 Z M 221.066 159.199 L 128.41 162.875 L 128.41 149.727 Z M 221.066 159.199 " fill="#ffffff" fill-opacity=".4"/>
<path transform="matrix(.2566,0,0,.2566,316.212,428.5672)" stroke-width=".75" stroke-linecap="round" stroke-miterlimit="4" stroke-linejoin="miter" fill="none" stroke="#000000" d="M 428.402 115.102 L 430.602 118.32 "/>
<path transform="matrix(.2566,0,0,.2566,316.212,428.5672)" d="M 223.27 149.27 L 221.066 146.051 L 128.41 149.727 Z M 430.602 118.32 L 569.586 112.809 L 428.402 115.102 Z M 430.602 118.32 " fill="#ffffff" fill-opacity=".4"/>
<path transform="matrix(.2566,0,0,.2566,316.212,428.5672)" stroke-width=".75" stroke-linecap="round" stroke-miterlimit="4" stroke-linejoin="miter" fill="none" stroke="#000000" d="M 223.27 162.418 L 223.27 149.27 M 130.613 166.094 L 223.27 162.418 M 223.27 149.27 L 223.27 162.418 "/>
<path transform="matrix(.2566,0,0,.2566,316.212,428.5672)" d="M 223.27 162.418 L 130.613 166.094 L 221.066 159.199 Z M 223.27 162.418 " fill="#ffffff" fill-opacity=".4"/>
<path transform="matrix(.2566,0,0,.2566,316.212,428.5672)" stroke-width=".75" stroke-linecap="round" stroke-miterlimit="4" stroke-linejoin="miter" fill="none" stroke="#000000" d="M 84.879 134.902 L 84.879 165.582 M 84.879 165.582 L 90.012 173.094 M 84.879 165.582 L 130.078 152.766 M 84.879 134.902 L 84.879 165.582 M 84.879 165.582 L 60.402 166.555 M 84.879 165.582 L 90.012 173.094 "/>
<path transform="matrix(.2566,0,0,.2566,316.212,428.5672)" d="M 130.613 166.094 L 128.41 162.875 L 221.066 159.199 Z M 428.402 115.102 L 428.402 128.25 L 430.602 118.32 Z M 428.402 115.102 " fill="#ffffff" fill-opacity=".4"/>
<path transform="matrix(.2566,0,0,.2566,316.212,428.5672)" stroke-width=".75" stroke-linecap="round" stroke-miterlimit="4" stroke-linejoin="miter" fill="none" stroke="#000000" d="M 128.41 149.727 L 128.41 162.875 M 128.41 162.875 L 130.613 166.094 "/>
<path transform="matrix(.2566,0,0,.2566,316.212,428.5672)" d="M 430.602 118.32 L 430.602 131.469 L 569.586 112.809 Z M 430.602 118.32 " fill="#ffffff" fill-opacity=".4"/>
<path transform="matrix(.2566,0,0,.2566,316.212,428.5672)" stroke-width=".75" stroke-linecap="round" stroke-miterlimit="4" stroke-linejoin="miter" fill="none" stroke="#000000" d="M 130.613 152.945 L 223.27 149.27 M 60.402 135.871 L 60.402 166.555 M 60.402 166.555 L 65.535 174.066 "/>
<path transform="matrix(.2566,0,0,.2566,316.212,428.5672)" d="M 428.402 128.25 L 430.602 131.469 L 430.602 118.32 Z M 428.402 128.25 " fill="#ffffff" fill-opacity=".4"/>
<path transform="matrix(.2566,0,0,.2566,316.212,428.5672)" stroke-width=".75" stroke-linecap="round" stroke-miterlimit="4" stroke-linejoin="miter" fill="none" stroke="#000000" d="M 128.41 149.727 L 130.613 152.945 "/>
<path transform="matrix(.2566,0,0,.2566,316.212,428.5672)" d="M 84.879 165.582 L 60.402 166.555 L 60.402 135.871 Z M 130.613 166.094 L 223.27 162.418 L 223.27 149.27 Z M 130.613 166.094 " fill="#ffffff" fill-opacity=".4"/>
<path transform="matrix(.2566,0,0,.2566,316.212,428.5672)" stroke-width=".75" stroke-linecap="round" stroke-miterlimit="4" stroke-linejoin="miter" fill="none" stroke="#000000" d="M 432.781 102.98 L 571.766 97.469 "/>
<path transform="matrix(.2566,0,0,.2566,316.212,428.5672)" d="M 84.879 134.902 L 84.879 165.582 L 60.402 135.871 Z M 84.879 165.582 L 84.879 134.902 L 130.078 152.766 Z M 84.879 165.582 " fill="#ffffff" fill-opacity=".4"/>
<path transform="matrix(.2566,0,0,.2566,316.212,428.5672)" stroke-width=".75" stroke-linecap="round" stroke-miterlimit="4" stroke-linejoin="miter" fill="none" stroke="#000000" d="M 430.602 118.32 L 430.602 131.469 "/>
<path transform="matrix(.2566,0,0,.2566,316.212,428.5672)" d="M 128.41 149.727 L 128.41 162.875 L 130.613 152.945 Z M 128.41 149.727 " fill="#ffffff" fill-opacity=".4"/>
<path transform="matrix(.2566,0,0,.2566,316.212,428.5672)" stroke-width=".75" stroke-linecap="round" stroke-miterlimit="4" stroke-linejoin="miter" fill="none" stroke="#000000" d="M 84.879 134.902 L 60.402 135.871 M 84.879 134.902 L 90.012 142.414 M 84.879 134.902 L 90.012 142.414 M 84.879 134.902 L 130.078 152.766 "/>
<path transform="matrix(.2566,0,0,.2566,316.212,428.5672)" d="M 130.613 152.945 L 223.27 149.27 L 128.41 149.727 Z M 128.41 162.875 L 130.613 166.094 L 130.613 152.945 Z M 130.613 152.945 L 130.613 166.094 L 223.27 149.27 Z M 130.613 152.945 " fill="#ffffff" fill-opacity=".4"/>
<path transform="matrix(.2566,0,0,.2566,316.212,428.5672)" stroke-width=".75" stroke-linecap="round" stroke-miterlimit="4" stroke-linejoin="miter" fill="none" stroke="#000000" d="M 60.402 135.871 L 65.535 143.383 "/>
<path transform="matrix(.2566,0,0,.2566,316.212,428.5672)" d="M 90.012 173.094 L 84.879 165.582 L 84.879 134.902 Z M 84.879 134.902 L 84.879 165.582 L 90.012 173.094 Z M 65.535 174.066 L 60.402 166.555 L 84.879 165.582 Z M 65.535 174.066 " fill="#ffffff" fill-opacity=".4"/>
<path transform="matrix(.2566,0,0,.2566,316.212,428.5672)" stroke-width=".75" stroke-linecap="round" stroke-miterlimit="4" stroke-linejoin="miter" fill="none" stroke="#000000" d="M 90.012 173.094 L 130.078 152.766 M 90.012 142.414 L 130.078 152.766 M 130.613 152.945 L 130.613 166.094 M 432.781 102.98 L 432.781 157.438 "/>
<path transform="matrix(.2566,0,0,.2566,316.212,428.5672)" d="M 90.012 173.094 L 84.879 165.582 L 130.078 152.766 Z M 90.012 142.414 L 84.879 134.902 L 60.402 135.871 Z M 60.402 135.871 L 60.402 166.555 L 65.535 143.383 Z M 84.879 134.902 L 90.012 142.414 L 130.078 152.766 Z M 90.012 173.094 L 65.535 174.066 L 84.879 165.582 Z M 90.012 142.414 L 90.012 173.094 L 84.879 134.902 Z M 84.879 134.902 L 90.012 173.094 L 90.012 142.414 Z M 60.402 166.555 L 65.535 174.066 L 65.535 143.383 Z M 60.402 166.555 " fill="#ffffff" fill-opacity=".4"/>
<path transform="matrix(.2566,0,0,.2566,316.212,428.5672)" stroke-width=".75" stroke-linecap="round" stroke-miterlimit="4" stroke-linejoin="miter" fill="none" stroke="#000000" d="M 274.59 173.215 L 391.723 168.57 M 391.723 98.926 L 391.723 168.57 "/>
<path transform="matrix(.2566,0,0,.2566,316.212,428.5672)" d="M 90.012 142.414 L 90.012 173.094 L 130.078 152.766 Z M 90.012 142.414 " fill="#ffffff" fill-opacity=".4"/>
<path transform="matrix(.2566,0,0,.2566,316.212,428.5672)" stroke-width=".75" stroke-linecap="round" stroke-miterlimit="4" stroke-linejoin="miter" fill="none" stroke="#000000" d="M 90.012 173.094 L 90.012 142.414 M 65.535 174.066 L 90.012 173.094 M 90.012 142.414 L 90.012 173.094 "/>
<path transform="matrix(.2566,0,0,.2566,316.212,428.5672)" d="M 65.535 143.383 L 90.012 142.414 L 60.402 135.871 Z M 65.535 174.066 L 90.012 173.094 L 90.012 142.414 Z M 65.535 174.066 " fill="#ffffff" fill-opacity=".4"/>
<path transform="matrix(.2566,0,0,.2566,316.212,428.5672)" stroke-width=".75" stroke-linecap="round" stroke-miterlimit="4" stroke-linejoin="miter" fill="none" stroke="#000000" d="M 65.535 143.383 L 65.535 174.066 M 65.535 143.383 L 90.012 142.414 "/>
<path transform="matrix(.2566,0,0,.2566,316.212,428.5672)" d="M 65.535 143.383 L 65.535 174.066 L 90.012 142.414 Z M 65.535 143.383 " fill="#ffffff" fill-opacity=".4"/>
<path transform="matrix(.2566,0,0,.2566,316.212,428.5672)" stroke-width=".75" stroke-linecap="round" stroke-miterlimit="4" stroke-linejoin="miter" fill="none" stroke="#000000" d="M 274.59 103.57 L 391.723 98.926 M 274.59 103.57 L 274.59 173.215 M 140.875 188.02 L 233.531 184.348 M 233.531 99.512 L 233.531 184.348 M 140.875 103.184 L 140.875 188.02 M 140.875 103.184 L 233.531 99.512 M 76.613 209.578 L 101.086 208.609 M 101.086 93.395 L 101.086 208.609 M 76.613 94.363 L 76.613 209.578 M 76.613 94.363 L 101.086 93.395 "/>
<path transform="matrix(.2566,0,0,.2566,316.212,428.5672)" d="M 868.465 .66 L 835.922 2.934 L 835.922 132.652 L 868.465 130.379 Z M 868.465 .66 " fill="#ffffff" fill-opacity=".3" fill-rule="evenodd"/>
<path transform="matrix(.2566,0,0,.2566,316.212,428.5672)" stroke-width=".75" stroke-linecap="butt" stroke-linejoin="round" fill="none" stroke="#000000" d="M 868.465 .66 L 835.922 2.934 L 835.922 132.652 L 868.465 130.379 Z M 868.465 .66 "/>
<path transform="matrix(.2566,0,0,.2566,316.212,428.5672)" d="M 868.465 .66 L 868.465 130.379 L 922.504 207.559 L 922.504 77.84 Z M 868.465 .66 " fill="#ffffff" fill-opacity=".3" fill-rule="evenodd"/>
<path transform="matrix(.2566,0,0,.2566,316.212,428.5672)" stroke-width=".75" stroke-linecap="butt" stroke-linejoin="round" fill="none" stroke="#000000" d="M 868.465 .66 L 868.465 130.379 L 922.504 207.559 L 922.504 77.84 Z M 868.465 .66 "/>
<path transform="matrix(.2566,0,0,.2566,316.212,428.5672)" d="M 868.465 130.379 L 835.922 132.652 L 889.965 209.836 L 922.504 207.559 Z M 868.465 130.379 " fill="#ffffff" fill-opacity=".3" fill-rule="evenodd"/>
<path transform="matrix(.2566,0,0,.2566,316.212,428.5672)" stroke-width=".75" stroke-linecap="butt" stroke-linejoin="round" fill="none" stroke="#000000" d="M 868.465 130.379 L 835.922 132.652 L 889.965 209.836 L 922.504 207.559 Z M 868.465 130.379 "/>
<path transform="matrix(.2566,0,0,.2566,316.212,428.5672)" d="M 868.465 .66 L 835.922 2.934 L 889.965 80.113 L 922.504 77.84 Z M 868.465 .66 " fill="#ffffff" fill-opacity=".3" fill-rule="evenodd"/>
<path transform="matrix(.2566,0,0,.2566,316.212,428.5672)" stroke-width=".75" stroke-linecap="butt" stroke-linejoin="round" fill="none" stroke="#000000" d="M 868.465 .66 L 835.922 2.934 L 889.965 80.113 L 922.504 77.84 Z M 868.465 .66 "/>
<path transform="matrix(.2566,0,0,.2566,316.212,428.5672)" d="M 835.922 2.934 L 835.922 132.652 L 889.965 209.836 L 889.965 80.113 Z M 835.922 2.934 " fill="#ffffff" fill-opacity=".3" fill-rule="evenodd"/>
<path transform="matrix(.2566,0,0,.2566,316.212,428.5672)" stroke-width=".75" stroke-linecap="butt" stroke-linejoin="round" fill="none" stroke="#000000" d="M 835.922 2.934 L 835.922 132.652 L 889.965 209.836 L 889.965 80.113 Z M 835.922 2.934 "/>
<path transform="matrix(.2566,0,0,.2566,316.212,428.5672)" d="M 922.504 77.84 L 889.965 80.113 L 889.965 209.836 L 922.504 207.559 Z M 922.504 77.84 " fill="#ffffff" fill-opacity=".3" fill-rule="evenodd"/>
<path transform="matrix(.2566,0,0,.2566,316.212,428.5672)" stroke-width=".75" stroke-linecap="butt" stroke-linejoin="round" fill="none" stroke="#000000" d="M 922.504 77.84 L 889.965 80.113 L 889.965 209.836 L 922.504 207.559 Z M 922.504 77.84 "/>
</g>
</g>
<text xml:space="preserve" transform="matrix(1 0 -0 1 0 792)" font-size="5.604" font-family="NimbusRomNo9L"><tspan y="-330.109" x="320.323 323.125 325.927">192</tspan></text>
<text xml:space="preserve" transform="matrix(1 0 -0 1 0 792)" font-size="5.604" font-family="NimbusRomNo9L"><tspan y="-311.156" x="322.578 325.38 328.182">768</tspan></text>
<text xml:space="preserve" transform="matrix(1 0 -0 1 0 792)" font-size="5.604" font-family="NimbusRomNo9L"><tspan y="-304.249" x="338.058">3</tspan></text>
<text xml:space="preserve" transform="matrix(1 0 -0 1 0 792)" font-size="5.604" font-family="NimbusRomNo9L"><tspan y="-309.981" x="361.463 364.265">64</tspan></text>
<text xml:space="preserve" transform="matrix(1 0 -0 1 0 792)" font-size="5.604" font-family="NimbusRomNo9L"><tspan y="-332.48399" x="341.99903 344.80104">48</tspan></text>
<text xml:space="preserve" transform="matrix(1 0 -0 1 0 792)" font-size="5.604" font-family="NimbusRomNo9L"><tspan y="-313.53498" x="342.29405 345.09605 347.89805">192</tspan></text>
<text xml:space="preserve" transform="matrix(1 0 -0 1 0 792)" font-size="5.604" font-family="NimbusRomNo9L"><tspan y="-331.84599" x="376.44703 379.24903">24</tspan></text>
<text xml:space="preserve" transform="matrix(1 0 -0 1 0 792)" font-size="5.604" font-family="NimbusRomNo9L"><tspan y="-317.654" x="377.60704 380.40904">96</tspan></text>
<text xml:space="preserve" transform="matrix(1 0 -0 1 0 792)" font-size="5.604" font-family="NimbusRomNo9L"><tspan y="-313.779" x="397.79804 400.60005 403.40205">192</tspan></text>
<text xml:space="preserve" transform="matrix(1 0 -0 1 0 792)" font-size="5.604" font-family="NimbusRomNo9L"><tspan y="-331.229" x="417.32804 420.13005">12</tspan></text>
<text xml:space="preserve" transform="matrix(1 0 -0 1 0 792)" font-size="5.604" font-family="NimbusRomNo9L"><tspan y="-321.641" x="419.16304 421.96504">48</tspan></text>
<text xml:space="preserve" transform="matrix(1 0 -0 1 0 792)" font-size="5.604" font-family="NimbusRomNo9L"><tspan y="-318.033" x="441.28703 444.08903 446.89103">512</tspan></text>
<text xml:space="preserve" transform="matrix(1 0 -0 1 0 792)" font-size="5.604" font-family="NimbusRomNo9L"><tspan y="-335.805" x="463.674 466.476">12</tspan></text>
<text xml:space="preserve" transform="matrix(1 0 -0 1 0 792)" font-size="5.604" font-family="NimbusRomNo9L"><tspan y="-324.63999" x="464.49803 467.30003">48</tspan></text>
<text xml:space="preserve" transform="matrix(1 0 -0 1 0 792)" font-size="5.604" font-family="NimbusRomNo9L"><tspan y="-319.86799" x="484.88203 487.68403 490.48603">256</tspan></text>
<text xml:space="preserve" transform="matrix(1 0 -0 1 0 792)" font-size="5.604" font-family="NimbusRomNo9L"><tspan y="-312.593" x="513.646 516.448 519.25">496</tspan></text>
<text xml:space="preserve" transform="matrix(1 0 -0 1 0 792)" font-size="5.604" font-family="NimbusRomNo9L"><tspan y="-344.29399" x="522.873 525.675">12</tspan></text>
<text xml:space="preserve" transform="matrix(1 0 -0 1 0 792)" font-size="5.604" font-family="NimbusRomNo9L"><tspan y="-317.35398" x="528.032 530.834">48</tspan></text>
<text xml:space="preserve" transform="matrix(1 0 -0 1 0 792)" font-size="5.604" font-family="NimbusRomNo9L"><tspan y="-304.78898" x="546.26699 549.069">11</tspan></text>
<text xml:space="preserve" transform="matrix(1 0 -0 1 0 792)" font-size="5.604" font-family="NimbusRomNo9L"><tspan y="-298.94798" x="308.59199 312.32984 315.13185 317.7097 320.14744 322.94944 326.37348 328.86167 331.66368 334.15187">Conv.Layer</tspan><tspan y="-291.94297" x="304.873 307.675 310.477 313.279 316.081 318.883 321.685 323.55113 325.73109 327.5972 330.3992 332.26533 335.06733 336.93345">7x7x64-s-2-p-3</tspan><tspan y="-284.93797" x="304.952 309.93397 312.42216 315.22416 318.02616 320.82817 323.63017 326.58909 330.01313 332.5013 335.3033 337.7915">MaxpoolLayer</tspan><tspan y="-277.93296" x="313.744 316.546 319.348 322.15 324.0161 326.19609 328.0622">2x2-s-2</tspan></text>
<text xml:space="preserve" transform="matrix(1 0 -0 1 0 792)" font-size="5.604" font-family="NimbusRomNo9L"><tspan y="-298.94795" x="354.84599 358.58384 361.38584 363.96369 366.40144 369.20344 372.62748 375.11567 377.91767 380.40586">Conv.Layer</tspan><tspan y="-291.94294" x="349.727 352.529 355.331 358.133 360.935 363.737 366.539 369.341 371.20713 373.3871 375.2532 378.0552 379.92134 382.72334 384.58946">3x3x192-s-1-p-1</tspan><tspan y="-284.93794" x="351.207 356.18898 358.67716 361.47917 364.28117 367.08317 369.88517 372.8441 376.26814 378.75633 381.55833 384.0465">MaxpoolLayer</tspan><tspan y="-277.93293" x="359.999 362.801 365.603 368.405 370.27113 372.45109 374.3172">2x2-s-2</tspan></text>
<text xml:space="preserve" transform="matrix(1 0 -0 1 0 792)" font-size="5.604" font-family="NimbusRomNo9L"><tspan y="-298.94795" x="400.77 404.50785 407.30986 409.8877 412.32545 415.12745 418.55149 421.03968 423.84169 426.32987 428.19599">Conv.Layers</tspan><tspan y="-291.94294" x="401.409 404.211 407.013 409.815 412.617 415.419 418.221 421.023 422.88914 425.0691 426.9352">1x1x128-s-1</tspan><tspan y="-284.93794" x="396.741 399.543 402.345 405.147 407.949 410.751 413.553 416.355 418.22114 420.4011 422.2672 425.0692 426.93534 429.73735 431.60346">3x3x256-s-1-p-1</tspan><tspan y="-277.93293" x="401.409 404.211 407.013 409.815 412.617 415.419 418.221 421.023 422.88914 425.0691 426.9352">1x1x256-s-1</tspan><tspan y="-270.92793" x="396.741 399.543 402.345 405.147 407.949 410.751 413.553 416.355 418.22114 420.4011 422.2672 425.0692 426.93534 429.73735 431.60346">3x3x512-s-1-p-1</tspan><tspan y="-263.9229" x="398.22 403.20198 405.69017 408.49217 411.29417 414.09617 416.89817 419.8571 423.28114 425.76933 428.57133 431.0595">MaxpoolLayer</tspan><tspan y="-256.9179" x="407.013 409.815 412.617 415.419 417.28514 419.4651 421.3312">2x2-s-2</tspan></text>
<text xml:space="preserve" transform="matrix(1 0 -0 1 0 792)" font-size="5.604" font-family="NimbusRomNo9L"><tspan y="-298.9479" x="455.825 459.56288 462.36488 464.94273 467.38047 470.18247 473.6065 476.0947 478.8967 481.3849 483.251">Conv.Layers</tspan><tspan y="-291.9429" x="446.63304 449.43504 452.23704 455.03904 457.84104 460.64305 463.44505 466.24705 468.11317 470.29313 472.15925">1x1x256-s-1</tspan><tspan y="-284.9379" x="446.63304 449.43504 452.23704 455.03904 457.84104 460.64305 463.44505 466.24705 468.11317 470.29313 472.15925 474.96125 476.82737 479.62937 481.49549">3x3x512-s-1-p-1</tspan></text>
<text xml:space="preserve" transform="matrix(1 0 -0 1 0 792)" font-size="5.604" font-family="CMEX7"><tspan y="-296.29389" x="484.29704">&#xfffd;</tspan></text>
<text xml:space="preserve" transform="matrix(1 0 -0 1 0 792)" font-size="5.604" font-family="NimbusRomNo9L"><tspan y="-288.4409" x="488.81303 493.01603">x4</tspan><tspan y="-277.9329" x="456.46403 459.26603 462.06803 464.87004 467.67204 470.47404 473.27604 476.07804 477.94416 480.1241 481.99024">1x1x256-s-1</tspan></text>
<text xml:space="preserve" transform="matrix(1 0 -0 1 0 792)" font-size="5.604" font-family="NimbusRomNo9L"><tspan y="-298.94789" x="534.88406 538.6219 541.4239 544.2259 547.0279 549.8299 553.25399 555.7421 558.5441 561.0323">Conn.Layer</tspan></text>
<text xml:space="preserve" transform="matrix(1 0 -0 1 0 792)" font-size="5.604" font-family="NimbusRomNo9L"><tspan y="-298.94789" x="496.8497 500.58757 503.38957 506.19157 508.99357 511.79557 515.2196 517.70779 520.50979 522.9979">Conn.Layer</tspan></text>
<g>
<clipPath id="cp1">
<path transform="matrix(.2566,0,0,-.2566,316.212,504.694)" d="M 0 0 L 931.7588 0 L 931.7588 296.67494 L 0 296.67494 Z "/>
</clipPath>
<g clip-path="url(#cp1)">
<path transform="matrix(.2566,0,0,.2566,316.212,428.5672)" stroke-width=".7515" stroke-linecap="round" stroke-miterlimit="4" stroke-linejoin="miter" fill="none" stroke="#000000" d="M 745.129 122.191 L 773.477 93.844 "/>
<path transform="matrix(-.2566,.25659973,-.25659973,-.2566,316.212,428.5672)" d="M -334.135 -431.303 L -340.522 -433.65 L -334.135 -435.998 C -335.155 -434.611 -335.149 -432.715 -334.135 -431.303 Z M -334.135 -431.303 " fill-rule="evenodd"/>
<path transform="matrix(-.2566,.25659973,-.25659973,-.2566,316.212,428.5672)" stroke-width=".365331" stroke-linecap="butt" stroke-linejoin="round" fill="none" stroke="#000000" d="M -334.135 -431.303 L -340.522 -433.65 L -334.135 -435.998 C -335.155 -434.611 -335.149 -432.715 -334.135 -431.303 Z M -334.135 -431.303 "/>
<path transform="matrix(.2566,0,0,.2566,316.212,428.5672)" stroke-width=".75" stroke-linecap="round" stroke-miterlimit="4" stroke-linejoin="miter" fill="none" stroke="#000000" d="M 745.129 93.844 L 773.477 122.191 "/>
<path transform="matrix(-.2566,-.25659973,.25659973,-.2566,316.212,428.5672)" d="M -442.164 327.996 L -448.535 325.652 L -442.164 323.309 C -443.182 324.693 -443.176 326.586 -442.164 327.996 Z M -442.164 327.996 " fill-rule="evenodd"/>
<path transform="matrix(-.2566,-.25659973,.25659973,-.2566,316.212,428.5672)" stroke-width=".364602" stroke-linecap="butt" stroke-linejoin="round" fill="none" stroke="#000000" d="M -442.164 327.996 L -448.535 325.652 L -442.164 323.309 C -443.182 324.693 -443.176 326.586 -442.164 327.996 Z M -442.164 327.996 "/>
<path transform="matrix(.2566,0,0,.2566,316.212,428.5672)" stroke-width=".7515" stroke-linecap="round" stroke-miterlimit="4" stroke-linejoin="miter" fill="none" stroke="#000000" d="M 801.809 122.191 L 830.156 93.844 "/>
<path transform="matrix(-.2566,.25659973,-.25659973,-.2566,316.212,428.5672)" d="M -362.475 -459.643 L -368.862 -461.99 L -362.477 -464.34 C -363.496 -462.953 -363.49 -461.057 -362.475 -459.643 Z M -362.475 -459.643 " fill-rule="evenodd"/>
<path transform="matrix(-.2566,.25659973,-.25659973,-.2566,316.212,428.5672)" stroke-width=".365331" stroke-linecap="butt" stroke-linejoin="round" fill="none" stroke="#000000" d="M -362.475 -459.643 L -368.862 -461.99 L -362.477 -464.34 C -363.496 -462.953 -363.49 -461.057 -362.475 -459.643 Z M -362.475 -459.643 "/>
<path transform="matrix(.2566,0,0,.2566,316.212,428.5672)" stroke-width=".75" stroke-linecap="round" stroke-miterlimit="4" stroke-linejoin="miter" fill="none" stroke="#000000" d="M 802.297 93.844 L 830.645 122.191 "/>
<path transform="matrix(-.2566,-.25659973,.25659973,-.2566,316.212,428.5672)" d="M -470.748 356.58 L -477.121 354.238 L -470.748 351.893 C -471.766 353.277 -471.76 355.17 -470.748 356.58 Z M -470.748 356.58 " fill-rule="evenodd"/>
<path transform="matrix(-.2566,-.25659973,.25659973,-.2566,316.212,428.5672)" stroke-width=".364602" stroke-linecap="butt" stroke-linejoin="round" fill="none" stroke="#000000" d="M -470.748 356.58 L -477.121 354.238 L -470.748 351.893 C -471.766 353.277 -471.76 355.17 -470.748 356.58 Z M -470.748 356.58 "/>
</g>
</g>
<text xml:space="preserve" transform="matrix(1 0 -0 1 0 792)" font-size="7.9701" font-family="NimbusRomNo9L"><tspan y="-239.485" x="320.478 326.23243 330.21748 334.2025 336.4182 338.6339 342.61897 346.604 350.58906 357.36363 361.34867 368.92027 374.67469 377.32875 380.86747 384.8525 387.0682 389.2839 392.82264 396.80769 399.02339 403.00843 408.452 412.43705 415.97578 421.86567 427.6201 431.1588 435.14387 437.7979 441.78297 445.768 449.30674 451.52244 455.06117 461.83573 467.59016 471.12889 473.34458 476.8833 480.42204 486.31193 489.85066 493.8357 499.27928 505.0337 509.01875 511.23445 514.77316 518.7582 520.9739 524.5126 527.1666 531.07199 534.61068 538.5957 542.58078 546.5658 550.55087">Abbildung1.ArchitekturdesNeuronalenNetzeszurObjekterkennung</tspan></text>
<text xml:space="preserve" transform="matrix(1 0 -0 1 0 792)" font-size="9.9626" font-family="NimbusRomNo9L"><tspan y="-219.017" x="311.978 319.171 321.94059 331.7637 338.6578 345.8508 351.93797 364.53068 371.72367 375.0412 379.4646 384.4459 387.21549 389.98509 394.40849 399.38978 402.15937 407.14067 415.8679 418.63749 422.51295 430.68226 433.45185 443.83287 446.60246 451.58375 454.90129 459.32469 468.0519 473.95973 478.941 482.07923 487.06053 491.48393 496.4652 500.8886 505.8699 509.74537 516.93838 521.36178 524.13137 528.0068 537.8299 541.14749 545.57089 548.34048 552.76388 555.53347 558.05398">DieYOLOArchitekturistinihrerVorgehensweiserelativ</tspan><tspan y="-207.062" x="311.978 316.4014 319.171 324.15229 327.37019 331.79359 336.21699 341.19828 347.6939 354.8869 357.6565 366.08488 373.27787 376.5954 381.5767 386.55799 391.53929 394.30888 399.29017 403.71357 412.14195 417.12324 421.54664 428.86915 437.7259 442.1493 444.91889 449.90019 454.88148 459.86277 468.29115 471.06074 474.9362 481.71076 486.13417 490.0096 496.50526 500.92866 503.69825 512.6845 517.1079 519.8775 524.8588 529.84017 534.26358 537.03317 541.45657 545.332 549.7554 554.7367 559.1601">einfach.DieGrundideederMethodeistes,eineingelesenes</tspan><tspan y="-195.107" x="311.978 318.62306 321.39265 324.16224 333.32783 336.0974 345.263 349.6864 352.456">Bildinein</tspan></text>
<text xml:space="preserve" transform="matrix(1 0 -0 1 0 792)" font-size="9.9626" font-family="CMMI10" font-style="italic"><tspan y="-195.107" x="361.617">S</tspan></text>
<text xml:space="preserve" transform="matrix(1 0 -0 1 0 792)" font-size="6.9738" font-family="CMMI7" font-style="italic"><tspan y="-193.61299" x="367.726">H</tspan></text>
<text xml:space="preserve" transform="matrix(1 0 -0 1 0 792)" font-size="9.9626" font-family="CMSY10" font-style="italic"><tspan y="-195.107" x="375.28303">&#x00d7;</tspan></text>
<text xml:space="preserve" transform="matrix(1 0 -0 1 0 792)" font-size="9.9626" font-family="CMMI10" font-style="italic"><tspan y="-195.107" x="383.031">S</tspan></text>
<text xml:space="preserve" transform="matrix(1 0 -0 1 0 792)" font-size="6.9738" font-family="CMMI7" font-style="italic"><tspan y="-193.61299" x="389.14">W</tspan></text>
<text xml:space="preserve" transform="matrix(1 0 -0 1 0 792)" font-size="9.9626" font-family="NimbusRomNo9L"><tspan y="-195.107" x="402.38703 409.58003 412.3496 415.1192 417.8888 422.3122 429.81404 434.23744 443.403 448.3843 453.3656 456.1352 460.5586 463.87614 466.64573 471.06913 473.8387 476.6083 481.0317 486.013 492.68797 499.333 503.7564 509.29563 514.2769 519.25827 523.68167 530.62557 534.501 537.27059 541.694 550.85958 555.8409 558.6105">Gitterzuunterteilen.Be&#xfb01;ndetsichdie</tspan><tspan y="-183.152" x="311.97804 320.83479 323.60438 326.37397 329.14356 336.41627 340.83967 343.60926 348.59056 353.01396 359.7387 366.9317 371.913 374.6826 379.106 384.08729 386.85688 391.28028 398.00505 400.77464 408.60523 413.02864 415.79823 420.7795 425.2029 431.36976 438.56275 441.33235 444.10194 446.87153 451.29493 454.61247 459.03587 463.45927 466.22886 468.99845 473.42185 478.7618 481.5314 485.40687 491.02577 496.00706 498.77665 506.04936 510.47276 515.45407 518.22366 522.09909 527.0804 530.39797 534.82138 539.24478 544.2261 548.6495 553.6308 558.6121">MitteeinesObjektesineinerGitterzelle,istdieentsprechende</tspan><tspan y="-171.19699" x="311.97804 319.17103 321.9406 324.7102 327.4798 331.9032 335.22074 339.64414 344.06755 346.83714 349.60673 357.24806">Gitterzellef</tspan><tspan y="-171.247" x="361.39305">&#x00a8;</tspan><tspan y="-171.19699" x="360.56105 365.54234 372.0778 377.05909 379.82868 387.46003 394.653 399.07643 401.846 406.2694 411.2507 414.0203 416.7899 421.77119 429.9704 434.9517 439.3751 446.4585 453.6515 458.63279 461.40238 465.82579 470.80708 473.57667 478.00007 485.09346 489.9253 494.3487 497.66624 502.08964 507.07093 509.8405 516.9339 521.9152 525.2328 528.0024 530.772 533.54159 537.96499 542.9463 548.65487 555.84786 558.61746">urdieDetektiondesObjektesverantwortlich.Die</tspan><tspan y="-159.24199" x="311.97804 316.40144 319.17103 324.1523 328.5757 332.9991 335.7687 340.75 345.1734 353.66154 360.85453 363.6241 366.3937 369.1633 373.5867 376.90425 381.32765 385.75105 388.52064 391.29023 395.71363 404.2117 406.9813 410.29884 414.72224 417.7907 421.10826 425.53166 434.01979 438.44319 441.21278 446.19407 454.13426 460.04206 465.02336 468.34089 473.32218 477.74559 481.0631 484.93858 489.36198 494.34327">einzelnenGitterzellentreffeneineVorhersage</tspan><tspan y="-159.29099" x="503.109">&#x00a8;</tspan><tspan y="-159.24199" x="502.278 507.2593 512.2406 516.664 523.4884 526.258 530.4323 537.6253 542.0487 544.8183 547.5879">uberjeweils</tspan></text>
<text xml:space="preserve" transform="matrix(1 0 -0 1 0 792)" font-size="9.9626" font-family="CMMI10" font-style="italic"><tspan y="-159.24199" x="554.98007">B</tspan></text>
<text xml:space="preserve" transform="matrix(1 0 -0 1 0 792)" font-size="9.9626" font-family="NimbusRomNo9L"><tspan y="-147.286" x="311.97804 318.62309 323.60438 328.58567 333.56697 338.54826 341.31785 346.29914 354.588 361.23307 366.21437 371.0462 375.4696 383.75849 387.07603">BoundingBoxen(x</tspan></text>
<text xml:space="preserve" transform="matrix(1 0 -0 1 0 792)" font-size="6.9738" font-family="CMMI7" font-style="italic"><tspan y="-145.79199" x="392.05604">c</tspan></text>
<text xml:space="preserve" transform="matrix(1 0 -0 1 0 792)" font-size="9.9626" font-family="NimbusRomNo9L"><tspan y="-147.286" x="396.11405 401.9123">,y</tspan></text>
<text xml:space="preserve" transform="matrix(1 0 -0 1 0 792)" font-size="6.9738" font-family="CMMI7" font-style="italic"><tspan y="-145.79199" x="406.89305">c</tspan></text>
<text xml:space="preserve" transform="matrix(1 0 -0 1 0 792)" font-size="9.9626" font-family="NimbusRomNo9L"><tspan y="-147.286" x="410.95204 416.75028 421.73158 427.52983 434.7228 441.34794 446.32923 451.31053 459.5994 464.5807 469.0041 475.6292 480.0526 485.0339 490.0152 494.4386">,h,w)undderzugeh</tspan><tspan y="-147.336" x="500.24803">&#x00a8;</tspan><tspan y="-147.286" x="499.41603 504.3973 507.71485 510.48445 515.46578 519.88919 528.17807 535.37106 538.1406 542.564 546.43948 550.3149 554.7383 559.7196">origenKlassen-</tspan><tspan y="-135.331" x="311.97804 319.07139 323.49479 328.47608 331.7936 335.66908 340.09248 345.07377 349.49717 352.26676 357.24806 360.01765 362.78724 367.21064 372.19194 377.07359 381.49699 384.26658 389.6065 392.92405 397.34745 403.2453 408.2266 412.65 418.54786 422.97126 427.95256 430.72215 434.58766 439.56895 442.88648 447.30989 451.73329 456.71458 461.13798 466.11927 471.10057 475.52397 483.08558 489.73063 496.37568 501.44667 508.63966 511.40925 518.403 524.31088 529.2922 532.60977 537.59109 542.01449 545.33206 549.20748 553.63088 558.6122">wahrscheinlichkeit(c)derentsprechendenBB.DieVorhersage</tspan><tspan y="-123.37599" x="311.97804 316.40144 319.71897 323.0365 328.0178 330.78739 335.76869 342.9816 347.9629 352.3863 360.1372 365.1185 369.5419 373.9653 383.37995 391.13087 393.90046 396.67005 401.65135 404.42094 407.19053 410.50807 419.3748 423.7982 426.56779 431.54908 435.97248">erfolgtdemnachmithilfeeines</tspan></text>
<text xml:space="preserve" transform="matrix(1 0 -0 1 0 792)" font-size="9.9626" font-family="CMMI10" font-style="italic"><tspan y="-123.37599" x="444.28404">S</tspan></text>
<text xml:space="preserve" transform="matrix(1 0 -0 1 0 792)" font-size="6.9738" font-family="CMMI7" font-style="italic"><tspan y="-121.88199" x="450.39305">H</tspan></text>
<text xml:space="preserve" transform="matrix(1 0 -0 1 0 792)" font-size="9.9626" font-family="CMSY10" font-style="italic"><tspan y="-123.37599" x="457.94905">&#x00d7;</tspan></text>
<text xml:space="preserve" transform="matrix(1 0 -0 1 0 792)" font-size="9.9626" font-family="CMMI10" font-style="italic"><tspan y="-123.37599" x="465.69804">S</tspan></text>
<text xml:space="preserve" transform="matrix(1 0 -0 1 0 792)" font-size="6.9738" font-family="CMMI7" font-style="italic"><tspan y="-121.88199" x="471.80705">W</tspan></text>
<text xml:space="preserve" transform="matrix(1 0 -0 1 0 792)" font-size="9.9626" font-family="CMSY10" font-style="italic"><tspan y="-123.37599" x="480.87004">&#x00d7;</tspan></text>
<text xml:space="preserve" transform="matrix(1 0 -0 1 0 792)" font-size="9.9626" font-family="CMR10"><tspan y="-123.37599" x="490.27903">(</tspan></text>
<text xml:space="preserve" transform="matrix(1 0 -0 1 0 792)" font-size="9.9626" font-family="CMMI10" font-style="italic"><tspan y="-123.37599" x="494.15403">B</tspan></text>
<text xml:space="preserve" transform="matrix(1 0 -0 1 0 792)" font-size="9.9626" font-family="CMSY10" font-style="italic"><tspan y="-123.37599" x="504.424">&#x2217;</tspan></text>
<text xml:space="preserve" transform="matrix(1 0 -0 1 0 792)" font-size="9.9626" font-family="CMR10"><tspan y="-123.37599" x="511.61903 518.812">5+</tspan></text>
<text xml:space="preserve" transform="matrix(1 0 -0 1 0 792)" font-size="9.9626" font-family="CMMI10" font-style="italic"><tspan y="-123.37599" x="528.77706">C</tspan></text>
<text xml:space="preserve" transform="matrix(1 0 -0 1 0 792)" font-size="9.9626" font-family="CMR10"><tspan y="-123.37599" x="536.61007">)</tspan></text>
<text xml:space="preserve" transform="matrix(1 0 -0 1 0 792)" font-size="9.9626" font-family="NimbusRomNo9L"><tspan y="-123.37599" x="544.9241 550.31387 554.73727 559.71859">Ten-</tspan><tspan y="-111.42099" x="311.9781 315.85356 320.83485 324.15238 328.02784 334.23457 337.5521 346.24946 351.23075 355.65415 362.68775 367.66905 370.98658 373.75617 378.73747 381.50706 386.48835 390.91175 393.68135 398.10475 406.81205 413.70616 420.89915 426.9863 437.89537 443.9825 448.4059 451.72346 455.5989 458.3685 463.3498 472.04716 479.24015 483.66355 486.98109 491.96238 496.38578 505.08314 510.06443 512.83407 520.9735 526.5127 529.83029 534.8116 539.7929 544.77426 549.75558 553.631 558.0544">sors.InderoriginalenYOLOVersionwerdendiePrognosen</tspan><tspan y="-99.46599" x="311.9781 319.729 322.4986 329.5322 336.7252 339.49479 342.26438 345.5819 354.26933 358.69273 361.4623 366.4436 370.867 378.9965">mitHilfeeines7</tspan></text>
<text xml:space="preserve" transform="matrix(1 0 -0 1 0 792)" font-size="9.9626" font-family="CMSY10" font-style="italic"><tspan y="-99.46599" x="383.98109">&#x00d7;</tspan></text>
<text xml:space="preserve" transform="matrix(1 0 -0 1 0 792)" font-size="9.9626" font-family="NimbusRomNo9L"><tspan y="-99.46599" x="391.73008 400.97538 408.16838 410.93797 413.70756 416.47715 420.90055 428.4821 431.79963 437.33885 442.32014 445.08973 447.8593 450.6289 453.94645 459.48567 462.25526 466.67866 471.10206 478.6736 483.6549 488.0783 490.8479 494.16545 499.14674 502.2152 505.53276 509.95616 514.93746 521.6921 525.5675 529.9909 534.9722 539.95358 544.37698 553.62228 556.39187 560.2673">7Gitter(Split-Size)getroffen.Jedochist</tspan><tspan y="-87.50999" x="311.9781 316.95939 321.38279 326.36408 330.78749 335.76878 340.75007 343.51966 349.72639 354.70768 359.13108 363.00654 370.59806 375.57936 378.34895 386.4884 391.4697 394.78724 398.6627 403.64399">bekannt,dassdieurspr</tspan><tspan y="-87.55999" x="407.7891">&#x00a8;</tspan><tspan y="-87.50999" x="406.9571 411.9384 416.91969 421.90098 424.67057 427.44017 431.86357 436.84486 444.9843 452.1773 457.1586 461.03407 463.80366 468.0776 473.0589 478.0402 483.02149 491.71885 496.70014 501.12355 508.71507 515.6092 522.8022 528.88937 539.7984 546.9914 549.761 554.7423 559.72366">unglicheAuslegungdesYOLOAlgo-</tspan><tspan y="-75.554988" x="311.9781 315.29563 318.06523 320.8348 325.8161 333.56703 338.5483 342.42378 349.91566 355.45487 358.7724 363.7537 368.735 371.50459 375.92799 383.6789 393.09358 398.07487 400.84446 405.82575 409.7012 412.4708 416.8942 421.8755 424.64509 427.41468 430.18428 434.60768 444.59019 449.01359 451.78318 456.76448 461.18788 469.49668 474.47798">rithmus,Problemehinsichtlicheinerpr</tspan><tspan y="-75.60499" x="478.3531">&#x00a8;</tspan><tspan y="-75.554988" x="477.80009 482.22349 486.64689 489.41648 493.29194 497.71534 507.69786 513.785 518.7663 523.7476 528.171 530.9406 533.7102 537.58566 540.3552 544.7786 548.0962 553.0775 558.05886">azisenLokalisierung</tspan></text>
</g>
</g>
</svg>
